<svg width="40" height="40" viewBox="0 0 40 40" fill="none" xmlns="http://www.w3.org/2000/svg" xmlns:xlink="http://www.w3.org/1999/xlink">
<g clip-path="url(#clip0_77_1622)">
<path d="M6.66675 31.6667V16.6667C6.66675 16.1389 6.78508 15.6389 7.02175 15.1667C7.25841 14.6945 7.58453 14.3056 8.00008 14L18.0001 6.50001C18.5834 6.05557 19.2501 5.83334 20.0001 5.83334C20.7501 5.83334 21.4167 6.05557 22.0001 6.50001L32.0001 14C32.4167 14.3056 32.7434 14.6945 32.9801 15.1667C33.2167 15.6389 33.3345 16.1389 33.3334 16.6667V31.6667C33.3334 32.5833 33.0068 33.3683 32.3534 34.0217C31.7001 34.675 30.9156 35.0011 30.0001 35H25.0001C24.5279 35 24.1323 34.84 23.8134 34.52C23.4945 34.2 23.3345 33.8045 23.3334 33.3333V25C23.3334 24.5278 23.1734 24.1322 22.8534 23.8133C22.5334 23.4945 22.1379 23.3345 21.6667 23.3333H18.3334C17.8612 23.3333 17.4656 23.4933 17.1467 23.8133C16.8279 24.1333 16.6679 24.5289 16.6667 25V33.3333C16.6667 33.8056 16.5067 34.2017 16.1867 34.5217C15.8667 34.8417 15.4712 35.0011 15.0001 35H10.0001C9.08341 35 8.29897 34.6739 7.64675 34.0217C6.99453 33.3695 6.66786 32.5845 6.66675 31.6667Z" fill="#9BA7D2"/>
<use xlink:href="#stroke0_77_1622" transform="translate(6.34187 30.2655) scale(0.0069889) rotate(28.3505)"/>
<use xlink:href="#stroke0_77_1622" transform="translate(5.79239 30.3417) scale(0.00587376) rotate(-4.92365)"/>
<use xlink:href="#stroke0_77_1622" transform="translate(6.42369 32.1233) scale(0.00710285) rotate(-129.024)"/>
<use xlink:href="#stroke0_77_1622" transform="translate(8.07649 29.8316) scale(0.00701597) rotate(118.917)"/>
<use xlink:href="#stroke0_77_1622" transform="translate(7.04897 30.8993) scale(0.00643568) rotate(-155.368)"/>
<use xlink:href="#stroke0_77_1622" transform="translate(5.17035 29.5958) scale(0.00766962) rotate(-67.1478)"/>
<use xlink:href="#stroke0_77_1622" transform="translate(7.91527 27.8758) scale(0.00687037) rotate(103.413)"/>
<use xlink:href="#stroke0_77_1622" transform="translate(5.08532 27.8568) scale(0.00770893) rotate(-44.0041)"/>
<use xlink:href="#stroke0_77_1622" transform="translate(7.32225 26.0022) scale(0.0075172) rotate(66.4736)"/>
<use xlink:href="#stroke0_77_1622" transform="translate(5.11134 26.2787) scale(0.00799052) rotate(-29.6526)"/>
<use xlink:href="#stroke0_77_1622" transform="translate(7.56569 25.3491) scale(0.00625204) rotate(85.7238)"/>
<use xlink:href="#stroke0_77_1622" transform="translate(5.3414 25.5478) scale(0.00653981) rotate(-38.5672)"/>
<use xlink:href="#stroke0_77_1622" transform="translate(5.60851 25.1214) scale(0.00524385) rotate(-37.284)"/>
<use xlink:href="#stroke0_77_1622" transform="translate(6.59117 23.3061) scale(0.00749852) rotate(38.5975)"/>
<use xlink:href="#stroke0_77_1622" transform="translate(7.83942 24.6046) scale(0.00584233) rotate(144.165)"/>
<use xlink:href="#stroke0_77_1622" transform="translate(7.39583 22.9583) scale(0.00577298) rotate(79.2591)"/>
<use xlink:href="#stroke0_77_1622" transform="translate(7.71092 24.463) scale(0.00723869) rotate(176.904)"/>
<use xlink:href="#stroke0_77_1622" transform="translate(5.69995 23.448) scale(0.00535104) rotate(-77.2049)"/>
<use xlink:href="#stroke0_77_1622" transform="translate(7.84192 23.1179) scale(0.00652512) rotate(160.347)"/>
<use xlink:href="#stroke0_77_1622" transform="translate(6.42294 20.3828) scale(0.00760774) rotate(32.4463)"/>
<use xlink:href="#stroke0_77_1622" transform="translate(5.46839 20.5432) scale(0.0070739) rotate(-13.9966)"/>
<use xlink:href="#stroke0_77_1622" transform="translate(6.86337 19.5048) scale(0.00659976) rotate(49.7281)"/>
<use xlink:href="#stroke0_77_1622" transform="translate(7.78373 20.3345) scale(0.00543421) rotate(128.552)"/>
<use xlink:href="#stroke0_77_1622" transform="translate(6.56606 21.3801) scale(0.00715933) rotate(-134.677)"/>
<use xlink:href="#stroke0_77_1622" transform="translate(7.34763 18.2932) scale(0.00630236) rotate(73.0693)"/>
<use xlink:href="#stroke0_77_1622" transform="translate(5.55241 19.0529) scale(0.00543781) rotate(-53.8891)"/>
<use xlink:href="#stroke0_77_1622" transform="translate(7.49957 17.788) scale(0.00543672) rotate(89.5061)"/>
<use xlink:href="#stroke0_77_1622" transform="translate(7.63649 18.7602) scale(0.00566753) rotate(165.162)"/>
<use xlink:href="#stroke0_77_1622" transform="translate(7.83941 17.8811) scale(0.00578483) rotate(141.345)"/>
<use xlink:href="#stroke0_77_1622" transform="translate(6.46639 18.7895) scale(0.00803032) rotate(-131.632)"/>
<use xlink:href="#stroke0_77_1622" transform="translate(7.29978 15.0318) scale(0.0079446) rotate(64.0964)"/>
<use xlink:href="#stroke0_77_1622" transform="translate(5.66402 17.0812) scale(0.00757982) rotate(-94.8677)"/>
<use xlink:href="#stroke0_77_1622" transform="translate(7.27775 14.2429) scale(0.00616847) rotate(58.9964)"/>
<use xlink:href="#stroke0_77_1622" transform="translate(5.93836 14.5396) scale(0.00609979) rotate(-25.5713)"/>
<use xlink:href="#stroke0_77_1622" transform="translate(6.50597 13.402) scale(0.00721765) rotate(5.66901)"/>
<use xlink:href="#stroke0_77_1622" transform="translate(8.841 14.1908) scale(0.00554639) rotate(128.496)"/>
<use xlink:href="#stroke0_77_1622" transform="translate(8.6973 15.132) scale(0.00649992) rotate(-167.242)"/>
<use xlink:href="#stroke0_77_1622" transform="translate(7.34416 14.7792) scale(0.00790863) rotate(-93.5829)"/>
<use xlink:href="#stroke0_77_1622" transform="translate(8.11806 12.2166) scale(0.0065887) rotate(4.23415)"/>
<use xlink:href="#stroke0_77_1622" transform="translate(8.2246 13.0089) scale(0.00521216) rotate(-47.6149)"/>
<use xlink:href="#stroke0_77_1622" transform="translate(9.73623 13.9052) scale(0.00548172) rotate(-144.348)"/>
<use xlink:href="#stroke0_77_1622" transform="translate(10.1512 11.3587) scale(0.00574346) rotate(50.449)"/>
<use xlink:href="#stroke0_77_1622" transform="translate(11.2048 11.3465) scale(0.00613445) rotate(85.4232)"/>
<use xlink:href="#stroke0_77_1622" transform="translate(11.2707 13.0352) scale(0.00584347) rotate(-167.316)"/>
<use xlink:href="#stroke0_77_1622" transform="translate(11.5964 12.8289) scale(0.00604545) rotate(-164.38)"/>
<use xlink:href="#stroke0_77_1622" transform="translate(11.7488 13.0077) scale(0.00797553) rotate(-147.926)"/>
<use xlink:href="#stroke0_77_1622" transform="translate(12.5506 10.1891) scale(0.0053968) rotate(77.876)"/>
<use xlink:href="#stroke0_77_1622" transform="translate(13.6108 10.2085) scale(0.0071065) rotate(107.704)"/>
<use xlink:href="#stroke0_77_1622" transform="translate(14.1958 10.5318) scale(0.00723184) rotate(133.844)"/>
<use xlink:href="#stroke0_77_1622" transform="translate(14.5028 9.68374) scale(0.00697911) rotate(112.736)"/>
<use xlink:href="#stroke0_77_1622" transform="translate(12.9937 11.1715) scale(0.00714127) rotate(-115.398)"/>
<use xlink:href="#stroke0_77_1622" transform="translate(15.1473 8.94864) scale(0.00629155) rotate(105.542)"/>
<use xlink:href="#stroke0_77_1622" transform="translate(15.0266 8.07143) scale(0.00643796) rotate(71.1003)"/>
<use xlink:href="#stroke0_77_1622" transform="translate(15.7287 8.37462) scale(0.00556846) rotate(101.393)"/>
<use xlink:href="#stroke0_77_1622" transform="translate(16.0745 7.73801) scale(0.0065365) rotate(87.4913)"/>
<use xlink:href="#stroke0_77_1622" transform="translate(16.6564 9.57651) scale(0.00807065) rotate(179.672)"/>
<use xlink:href="#stroke0_77_1622" transform="translate(16.293 7.022) scale(0.00518413) rotate(59.882)"/>
<use xlink:href="#stroke0_77_1622" transform="translate(15.6576 8.69845) scale(0.0053231) rotate(-104.278)"/>
<use xlink:href="#stroke0_77_1622" transform="translate(15.1351 7.9551) scale(0.00781544) rotate(-65.2839)"/>
<use xlink:href="#stroke0_77_1622" transform="translate(16.248 8.45296) scale(0.00775271) rotate(-104.148)"/>
<use xlink:href="#stroke0_77_1622" transform="translate(16.7227 6.13549) scale(0.00526887) rotate(-8.11397)"/>
<use xlink:href="#stroke0_77_1622" transform="translate(16.466 6.17399) scale(0.00735713) rotate(-34.1876)"/>
<use xlink:href="#stroke0_77_1622" transform="translate(19.3599 7.16189) scale(0.00652525) rotate(173.928)"/>
<use xlink:href="#stroke0_77_1622" transform="translate(20.1346 7.07826) scale(0.00799651) rotate(171.303)"/>
<use xlink:href="#stroke0_77_1622" transform="translate(20.1767 6.84509) scale(0.00603329) rotate(-178.013)"/>
<use xlink:href="#stroke0_77_1622" transform="translate(20.8427 6.49283) scale(0.00583237) rotate(164.53)"/>
<use xlink:href="#stroke0_77_1622" transform="translate(19.2244 5.53979) scale(0.00523863) rotate(-32.2931)"/>
<use xlink:href="#stroke0_77_1622" transform="translate(21.1975 7.03231) scale(0.00604083) rotate(-162.945)"/>
<use xlink:href="#stroke0_77_1622" transform="translate(21.7382 7.36228) scale(0.00702547) rotate(-162.019)"/>
<use xlink:href="#stroke0_77_1622" transform="translate(22.9328 6.51914) scale(0.0064673) rotate(142.92)"/>
<use xlink:href="#stroke0_77_1622" transform="translate(23.1996 6.96122) scale(0.00609261) rotate(152.03)"/>
<use xlink:href="#stroke0_77_1622" transform="translate(21.9337 8.23506) scale(0.00726886) rotate(-119.078)"/>
<use xlink:href="#stroke0_77_1622" transform="translate(23.584 5.85089) scale(0.00721804) rotate(69.9062)"/>
<use xlink:href="#stroke0_77_1622" transform="translate(24.378 7.39012) scale(0.00543439) rotate(128.558)"/>
<use xlink:href="#stroke0_77_1622" transform="translate(24.0639 6.41049) scale(0.0067172) rotate(59.6333)"/>
<use xlink:href="#stroke0_77_1622" transform="translate(23.3952 9.56611) scale(0.00803769) rotate(-114.092)"/>
<use xlink:href="#stroke0_77_1622" transform="translate(25.7638 7.37924) scale(0.00772964) rotate(90.4721)"/>
<use xlink:href="#stroke0_77_1622" transform="translate(24.3256 9.96229) scale(0.00673838) rotate(-109.347)"/>
<use xlink:href="#stroke0_77_1622" transform="translate(24.2681 8.48211) scale(0.00612522) rotate(-22.0001)"/>
<use xlink:href="#stroke0_77_1622" transform="translate(26.9326 9.00596) scale(0.00589207) rotate(116.333)"/>
<use xlink:href="#stroke0_77_1622" transform="translate(25.17 10.9054) scale(0.00788658) rotate(-100.031)"/>
<use xlink:href="#stroke0_77_1622" transform="translate(25.8143 10.9423) scale(0.00615226) rotate(-99.6647)"/>
<use xlink:href="#stroke0_77_1622" transform="translate(27.6814 9.23846) scale(0.00592064) rotate(76.663)"/>
<use xlink:href="#stroke0_77_1622" transform="translate(26.1774 10.0739) scale(0.0060403) rotate(-28.2105)"/>
<use xlink:href="#stroke0_77_1622" transform="translate(27.9874 9.70236) scale(0.00537476) rotate(56.9652)"/>
<use xlink:href="#stroke0_77_1622" transform="translate(27.7067 9.71421) scale(0.00668194) rotate(26.5899)"/>
<use xlink:href="#stroke0_77_1622" transform="translate(27.1729 12.0058) scale(0.00707825) rotate(-74.986)"/>
<use xlink:href="#stroke0_77_1622" transform="translate(28.5078 12.8619) scale(0.00611416) rotate(-121.386)"/>
<use xlink:href="#stroke0_77_1622" transform="translate(28.2459 11.0431) scale(0.00665005) rotate(-6.98716)"/>
<use xlink:href="#stroke0_77_1622" transform="translate(28.833 12.9487) scale(0.00524135) rotate(-90.8246)"/>
<use xlink:href="#stroke0_77_1622" transform="translate(30.8345 11.5754) scale(0.00606614) rotate(84.8171)"/>
<use xlink:href="#stroke0_77_1622" transform="translate(30.6221 11.5712) scale(0.00591774) rotate(54.7064)"/>
<use xlink:href="#stroke0_77_1622" transform="translate(30.7652 11.7579) scale(0.00620392) rotate(43.8178)"/>
<use xlink:href="#stroke0_77_1622" transform="translate(31.4451 14.2904) scale(0.00519173) rotate(-159.782)"/>
<use xlink:href="#stroke0_77_1622" transform="translate(32.6922 12.732) scale(0.00734619) rotate(97.2472)"/>
<use xlink:href="#stroke0_77_1622" transform="translate(32.2911 15.3889) scale(0.00740614) rotate(-153.814)"/>
<use xlink:href="#stroke0_77_1622" transform="translate(31.1361 13.9889) scale(0.00567913) rotate(-36.6888)"/>
<use xlink:href="#stroke0_77_1622" transform="translate(32.1124 16.1062) scale(0.00771074) rotate(-119.73)"/>
<use xlink:href="#stroke0_77_1622" transform="translate(32.9844 16.2406) scale(0.00586623) rotate(-142.085)"/>
<use xlink:href="#stroke0_77_1622" transform="translate(34.6639 15.9096) scale(0.00771899) rotate(146.15)"/>
<use xlink:href="#stroke0_77_1622" transform="translate(33.4015 14.6116) scale(0.00698955) rotate(46.356)"/>
<use xlink:href="#stroke0_77_1622" transform="translate(34.3741 17.2897) scale(0.00622566) rotate(166.945)"/>
<use xlink:href="#stroke0_77_1622" transform="translate(33.6052 15.7447) scale(0.00635722) rotate(53.3932)"/>
<use xlink:href="#stroke0_77_1622" transform="translate(34.1502 16.6735) scale(0.00557496) rotate(86.7964)"/>
<use xlink:href="#stroke0_77_1622" transform="translate(32.3226 16.9521) scale(0.00692048) rotate(-3.80669)"/>
<use xlink:href="#stroke0_77_1622" transform="translate(34.2664 17.2679) scale(0.00753439) rotate(78.3964)"/>
<use xlink:href="#stroke0_77_1622" transform="translate(32.3201 18.242) scale(0.00624159) rotate(-10.6767)"/>
<use xlink:href="#stroke0_77_1622" transform="translate(32.6643 18.4698) scale(0.00595341) rotate(8.30486)"/>
<use xlink:href="#stroke0_77_1622" transform="translate(34.5947 19.3609) scale(0.00683454) rotate(105.132)"/>
<use xlink:href="#stroke0_77_1622" transform="translate(34.4183 20.763) scale(0.00548264) rotate(147.352)"/>
<use xlink:href="#stroke0_77_1622" transform="translate(34.8244 21.3026) scale(0.00744939) rotate(144.86)"/>
<use xlink:href="#stroke0_77_1622" transform="translate(32.2995 22.4513) scale(0.00685652) rotate(-91.4817)"/>
<use xlink:href="#stroke0_77_1622" transform="translate(31.9884 22.5521) scale(0.00702808) rotate(-70.1717)"/>
<use xlink:href="#stroke0_77_1622" transform="translate(34.4057 22.1589) scale(0.00546189) rotate(113.944)"/>
<use xlink:href="#stroke0_77_1622" transform="translate(33.8285 21.7651) scale(0.00619749) rotate(64.2427)"/>
<use xlink:href="#stroke0_77_1622" transform="translate(34.2768 23.9888) scale(0.00544451) rotate(164.057)"/>
<use xlink:href="#stroke0_77_1622" transform="translate(32.6268 22.9293) scale(0.00544593) rotate(2.32159)"/>
<use xlink:href="#stroke0_77_1622" transform="translate(33.9048 25.3074) scale(0.00591587) rotate(-166.586)"/>
<use xlink:href="#stroke0_77_1622" transform="translate(33.8468 25.6832) scale(0.00552592) rotate(-165.429)"/>
<use xlink:href="#stroke0_77_1622" transform="translate(33.2662 26.622) scale(0.00715218) rotate(-135.977)"/>
<use xlink:href="#stroke0_77_1622" transform="translate(32.3404 24.5477) scale(0.0074164) rotate(0.818082)"/>
<use xlink:href="#stroke0_77_1622" transform="translate(34.6747 26.9993) scale(0.00741367) rotate(159.872)"/>
<use xlink:href="#stroke0_77_1622" transform="translate(33.0678 25.6242) scale(0.00572835) rotate(28.3848)"/>
<use xlink:href="#stroke0_77_1622" transform="translate(34.3738 26.4324) scale(0.00638308) rotate(93.7772)"/>
<use xlink:href="#stroke0_77_1622" transform="translate(33.6662 26.3133) scale(0.00717034) rotate(54.4364)"/>
<use xlink:href="#stroke0_77_1622" transform="translate(33.4941 26.8277) scale(0.00718738) rotate(47.6393)"/>
<use xlink:href="#stroke0_77_1622" transform="translate(34.7756 29.5757) scale(0.00780298) rotate(157.496)"/>
<use xlink:href="#stroke0_77_1622" transform="translate(34.2357 30.2165) scale(0.00593545) rotate(173.789)"/>
<use xlink:href="#stroke0_77_1622" transform="translate(34.2969 29.1352) scale(0.0058013) rotate(95.205)"/>
<use xlink:href="#stroke0_77_1622" transform="translate(32.5513 29.1443) scale(0.00687537) rotate(7.84789)"/>
<use xlink:href="#stroke0_77_1622" transform="translate(33.8838 29.5347) scale(0.0069253) rotate(64.1199)"/>
<use xlink:href="#stroke0_77_1622" transform="translate(34.9585 31.4601) scale(0.00789922) rotate(133.014)"/>
<use xlink:href="#stroke0_77_1622" transform="translate(33.4154 30.7282) scale(0.00590717) rotate(45.7457)"/>
<use xlink:href="#stroke0_77_1622" transform="translate(34.026 31.1052) scale(0.00753648) rotate(71.5361)"/>
<use xlink:href="#stroke0_77_1622" transform="translate(32.6824 31.9121) scale(0.00526551) rotate(18.6675)"/>
<use xlink:href="#stroke0_77_1622" transform="translate(33.4945 32.286) scale(0.00559099) rotate(71.2773)"/>
<use xlink:href="#stroke0_77_1622" transform="translate(31.83 35.1741) scale(0.00808494) rotate(-109.903)"/>
<use xlink:href="#stroke0_77_1622" transform="translate(33.5069 33.4486) scale(0.00701782) rotate(103.057)"/>
<use xlink:href="#stroke0_77_1622" transform="translate(32.9526 34.5116) scale(0.00526983) rotate(135.831)"/>
<use xlink:href="#stroke0_77_1622" transform="translate(30.3558 34.8827) scale(0.00573914) rotate(-60.1904)"/>
<use xlink:href="#stroke0_77_1622" transform="translate(31.4795 36.4495) scale(0.00809078) rotate(-154.376)"/>
<use xlink:href="#stroke0_77_1622" transform="translate(31.2009 35.9251) scale(0.00574026) rotate(-174.185)"/>
<use xlink:href="#stroke0_77_1622" transform="translate(28.7921 34.7735) scale(0.00624923) rotate(-38.4667)"/>
<use xlink:href="#stroke0_77_1622" transform="translate(29.3363 33.8613) scale(0.005683) rotate(28.205)"/>
<use xlink:href="#stroke0_77_1622" transform="translate(27.9031 35.1294) scale(0.0061103) rotate(-54.5018)"/>
<use xlink:href="#stroke0_77_1622" transform="translate(27.6193 34.9451) scale(0.0053425) rotate(-45.7312)"/>
<use xlink:href="#stroke0_77_1622" transform="translate(28.3151 36.3031) scale(0.00633514) rotate(-140.472)"/>
<use xlink:href="#stroke0_77_1622" transform="translate(28.9026 35.6754) scale(0.00632505) rotate(162.661)"/>
<use xlink:href="#stroke0_77_1622" transform="translate(28.5825 35.5735) scale(0.00688706) rotate(155.272)"/>
<use xlink:href="#stroke0_77_1622" transform="translate(25.5326 35.2944) scale(0.0062539) rotate(-61.8177)"/>
<use xlink:href="#stroke0_77_1622" transform="translate(25.8592 33.9227) scale(0.00571183) rotate(17.8203)"/>
<use xlink:href="#stroke0_77_1622" transform="translate(26.9284 35.5657) scale(0.0057313) rotate(160.061)"/>
<use xlink:href="#stroke0_77_1622" transform="translate(26.789 35.1674) scale(0.0067043) rotate(138.374)"/>
<use xlink:href="#stroke0_77_1622" transform="translate(24.2006 35.9024) scale(0.0056926) rotate(-99.024)"/>
<use xlink:href="#stroke0_77_1622" transform="translate(25.5619 34.3992) scale(0.00570641) rotate(104.136)"/>
<use xlink:href="#stroke0_77_1622" transform="translate(22.6933 34.9376) scale(0.00682656) rotate(-56.614)"/>
<use xlink:href="#stroke0_77_1622" transform="translate(24.3643 35.3476) scale(0.00538042) rotate(-173.218)"/>
<use xlink:href="#stroke0_77_1622" transform="translate(22.3778 34.6844) scale(0.00618443) rotate(-77.4519)"/>
<use xlink:href="#stroke0_77_1622" transform="translate(23.2483 32.0548) scale(0.00740266) rotate(37.6255)"/>
<use xlink:href="#stroke0_77_1622" transform="translate(24.946 32.7595) scale(0.00791636) rotate(123.209)"/>
<use xlink:href="#stroke0_77_1622" transform="translate(23.887 31.4035) scale(0.00582944) rotate(68.8838)"/>
<use xlink:href="#stroke0_77_1622" transform="translate(23.5667 33.4075) scale(0.00704096) rotate(-147.86)"/>
<use xlink:href="#stroke0_77_1622" transform="translate(22.6522 30.1621) scale(0.00703965) rotate(13.3557)"/>
<use xlink:href="#stroke0_77_1622" transform="translate(24.3836 31.671) scale(0.00623141) rotate(166.432)"/>
<use xlink:href="#stroke0_77_1622" transform="translate(23.4529 28.9842) scale(0.00704423) rotate(46.1318)"/>
<use xlink:href="#stroke0_77_1622" transform="translate(22.0893 29.3255) scale(0.00667156) rotate(-23.5709)"/>
<use xlink:href="#stroke0_77_1622" transform="translate(24.2478 30.3654) scale(0.00643741) rotate(177.76)"/>
<use xlink:href="#stroke0_77_1622" transform="translate(22.9606 30.3129) scale(0.00715326) rotate(-123.928)"/>
<use xlink:href="#stroke0_77_1622" transform="translate(24.2405 27.6819) scale(0.00562668) rotate(92.9714)"/>
<use xlink:href="#stroke0_77_1622" transform="translate(23.1775 29.2033) scale(0.00611706) rotate(-131.48)"/>
<use xlink:href="#stroke0_77_1622" transform="translate(21.9501 27.2528) scale(0.00679783) rotate(-39.999)"/>
<use xlink:href="#stroke0_77_1622" transform="translate(24.4537 26.9345) scale(0.00545155) rotate(128.311)"/>
<use xlink:href="#stroke0_77_1622" transform="translate(22.4157 27.1719) scale(0.00529148) rotate(-81.1702)"/>
<use xlink:href="#stroke0_77_1622" transform="translate(23.5036 27.5702) scale(0.00713334) rotate(-145.253)"/>
<use xlink:href="#stroke0_77_1622" transform="translate(23.5921 24.0905) scale(0.00726599) rotate(51.3658)"/>
<use xlink:href="#stroke0_77_1622" transform="translate(22.0441 25.8992) scale(0.00765281) rotate(-83.645)"/>
<use xlink:href="#stroke0_77_1622" transform="translate(24.809 24.096) scale(0.00778674) rotate(119.858)"/>
<use xlink:href="#stroke0_77_1622" transform="translate(21.8011 24.1193) scale(0.00582056) rotate(-55.9949)"/>
<use xlink:href="#stroke0_77_1622" transform="translate(21.5118 22.4633) scale(0.00773676) rotate(-2.35556)"/>
<use xlink:href="#stroke0_77_1622" transform="translate(22.5907 24.5018) scale(0.00578389) rotate(-160.425)"/>
<use xlink:href="#stroke0_77_1622" transform="translate(23.0734 23.9873) scale(0.00764741) rotate(155.954)"/>
<use xlink:href="#stroke0_77_1622" transform="translate(20.2242 24.1955) scale(0.00604155) rotate(-92.4944)"/>
<use xlink:href="#stroke0_77_1622" transform="translate(18.9177 23.3772) scale(0.00808776) rotate(-50.106)"/>
<use xlink:href="#stroke0_77_1622" transform="translate(21.1763 23.5847) scale(0.00555136) rotate(144.113)"/>
<use xlink:href="#stroke0_77_1622" transform="translate(21.0794 23.8659) scale(0.00786682) rotate(150.608)"/>
<use xlink:href="#stroke0_77_1622" transform="translate(19.757 24.5383) scale(0.00695182) rotate(-171.222)"/>
<use xlink:href="#stroke0_77_1622" transform="translate(19.3767 22.0652) scale(0.00769732) rotate(78.2234)"/>
<use xlink:href="#stroke0_77_1622" transform="translate(19.1073 22.8823) scale(0.00637604) rotate(108.897)"/>
<use xlink:href="#stroke0_77_1622" transform="translate(17.614 22.4083) scale(0.00562384) rotate(48.3861)"/>
<use xlink:href="#stroke0_77_1622" transform="translate(17.961 24.7522) scale(0.00602903) rotate(179.182)"/>
<use xlink:href="#stroke0_77_1622" transform="translate(15.4943 23.5358) scale(0.00736903) rotate(-20.5776)"/>
<use xlink:href="#stroke0_77_1622" transform="translate(17.82 24.8915) scale(0.00556587) rotate(140.155)"/>
<use xlink:href="#stroke0_77_1622" transform="translate(17.2677 24.1314) scale(0.0057332) rotate(72.0245)"/>
<use xlink:href="#stroke0_77_1622" transform="translate(17.9617 24.6323) scale(0.00807239) rotate(92.6177)"/>
<use xlink:href="#stroke0_77_1622" transform="translate(17.0757 27.3329) scale(0.00583831) rotate(-158.494)"/>
<use xlink:href="#stroke0_77_1622" transform="translate(15.2489 26.1933) scale(0.0073238) rotate(-28.7589)"/>
<use xlink:href="#stroke0_77_1622" transform="translate(16.6184 25.689) scale(0.0077264) rotate(39.6611)"/>
<use xlink:href="#stroke0_77_1622" transform="translate(18.0871 28.1687) scale(0.00708096) rotate(144.334)"/>
<use xlink:href="#stroke0_77_1622" transform="translate(15.7104 28.8688) scale(0.00536484) rotate(-78.5805)"/>
<use xlink:href="#stroke0_77_1622" transform="translate(15.6012 28.9779) scale(0.00532207) rotate(-61.9857)"/>
<use xlink:href="#stroke0_77_1622" transform="translate(17.8115 28.516) scale(0.00640937) rotate(101.61)"/>
<use xlink:href="#stroke0_77_1622" transform="translate(15.4267 29.9193) scale(0.00616539) rotate(-60.8184)"/>
<use xlink:href="#stroke0_77_1622" transform="translate(15.024 30.0388) scale(0.00801628) rotate(-43.2993)"/>
<use xlink:href="#stroke0_77_1622" transform="translate(18.1972 30.8262) scale(0.0074397) rotate(133.127)"/>
<use xlink:href="#stroke0_77_1622" transform="translate(17.5343 30.4782) scale(0.00574972) rotate(88.5592)"/>
<use xlink:href="#stroke0_77_1622" transform="translate(15.7201 32.4772) scale(0.00587277) rotate(-87.0364)"/>
<use xlink:href="#stroke0_77_1622" transform="translate(15.6785 33.137) scale(0.00661173) rotate(-92.0224)"/>
<use xlink:href="#stroke0_77_1622" transform="translate(16.5217 31.5933) scale(0.00518916) rotate(33.6011)"/>
<use xlink:href="#stroke0_77_1622" transform="translate(16.0016 32.0555) scale(0.00591268) rotate(8.27063)"/>
<use xlink:href="#stroke0_77_1622" transform="translate(17.4431 32.5081) scale(0.00630484) rotate(78.7448)"/>
<use xlink:href="#stroke0_77_1622" transform="translate(17.6307 32.9797) scale(0.00747416) rotate(87.5816)"/>
<use xlink:href="#stroke0_77_1622" transform="translate(16.0543 35.7906) scale(0.00641602) rotate(-131.131)"/>
<use xlink:href="#stroke0_77_1622" transform="translate(17.1173 34.743) scale(0.00613907) rotate(129.698)"/>
<use xlink:href="#stroke0_77_1622" transform="translate(14.7337 34.0046) scale(0.0057249) rotate(4.75594)"/>
<use xlink:href="#stroke0_77_1622" transform="translate(13.917 33.7135) scale(0.00792788) rotate(3.44827)"/>
<use xlink:href="#stroke0_77_1622" transform="translate(12.7987 35.4978) scale(0.00778562) rotate(-66.6953)"/>
<use xlink:href="#stroke0_77_1622" transform="translate(12.5547 34.3305) scale(0.00673464) rotate(-19.7102)"/>
<use xlink:href="#stroke0_77_1622" transform="translate(13.9228 36.1791) scale(0.00656934) rotate(-167.89)"/>
<use xlink:href="#stroke0_77_1622" transform="translate(11.493 34.9173) scale(0.00623404) rotate(-44.8971)"/>
<use xlink:href="#stroke0_77_1622" transform="translate(12.0369 33.5544) scale(0.00711076) rotate(32.4489)"/>
<use xlink:href="#stroke0_77_1622" transform="translate(12.3375 36.0233) scale(0.00566758) rotate(-167.278)"/>
<use xlink:href="#stroke0_77_1622" transform="translate(11.4575 36.1559) scale(0.00564235) rotate(-144.071)"/>
<use xlink:href="#stroke0_77_1622" transform="translate(10.8937 36.3953) scale(0.0067804) rotate(-139.438)"/>
<use xlink:href="#stroke0_77_1622" transform="translate(11.6509 35.3806) scale(0.00650788) rotate(147.912)"/>
<use xlink:href="#stroke0_77_1622" transform="translate(11.045 34.7917) scale(0.00563454) rotate(121.118)"/>
<use xlink:href="#stroke0_77_1622" transform="translate(8.43259 34.2037) scale(0.00618034) rotate(-12.1466)"/>
<use xlink:href="#stroke0_77_1622" transform="translate(9.9209 34.1554) scale(0.00556178) rotate(93.3512)"/>
<use xlink:href="#stroke0_77_1622" transform="translate(9.44305 35.5876) scale(0.00588633) rotate(178.092)"/>
<use xlink:href="#stroke0_77_1622" transform="translate(8.35154 35.6123) scale(0.00544367) rotate(-144.618)"/>
<use xlink:href="#stroke0_77_1622" transform="translate(9.08282 33.1261) scale(0.00800084) rotate(91.1781)"/>
<use xlink:href="#stroke0_77_1622" transform="translate(6.91565 32.9106) scale(0.00522749) rotate(10.388)"/>
<use xlink:href="#stroke0_77_1622" transform="translate(6.10585 33.3491) scale(0.0054724) rotate(-40.365)"/>
<use xlink:href="#stroke0_77_1622" transform="translate(5.54169 33.0619) scale(0.00700285) rotate(-47.1082)"/>
<use xlink:href="#stroke0_77_1622" transform="translate(7.50859 31.571) scale(0.00618986) rotate(75.1123)"/>
<use xlink:href="#stroke0_77_1622" transform="translate(5.11009 31.7457) scale(0.00788961) rotate(-35.7825)"/>
<use xlink:href="#stroke0_77_1622" transform="translate(5.94418 30.555) scale(0.00644243) rotate(8.38148)"/>
</g>
<defs>
<clipPath id="clip0_77_1622">
<rect width="40" height="40" fill="white"/>
</clipPath>
<g id="stroke0_77_1622" data-figma-scatter-ref="stroke0_77_1622_ref" data-figma-scatter="f0.28_w0_aj180_sj0.25_r0_s5854199810284694078_sw2">
<path d="M103.731 283.547C110.352 281.363 112.807 281.348 116.121 283.468C130.109 292.418 124.85 308.718 107.972 308.727C90.3768 308.737 87.0606 289.046 103.731 283.547ZM139.837 35.4146C140.937 35.1787 142.512 35.114 143.337 35.271C144.162 35.4281 146.516 35.8391 148.567 36.1851C155.802 37.4051 160.179 46.6969 156.734 53.5249C152.924 61.0769 144.715 67.5811 140.859 66.1021C135.872 64.1881 137.625 69.8792 144.066 76.5152C148.306 80.8841 150.337 81.2685 150.337 77.7066C150.337 76.6574 151.622 74.3218 153.193 72.5161C154.823 70.6412 156.597 66.9201 157.324 63.8501C158.925 57.0892 160.788 55.2289 167.369 53.8169C177.32 51.6829 185.581 56.9263 183.752 64.2153C183.293 66.0423 183.901 67.6656 186.09 70.4585C196.859 84.1975 193.875 104.273 180.596 107.418C177.049 108.258 176.832 108.532 176.773 112.27C176.739 114.448 176.365 116.987 175.943 117.912C175.255 119.417 175.946 119.564 182.506 119.31C190.415 119.003 192.674 119.705 195.953 123.487C199.054 127.064 201.598 126.114 202.609 121.002C203.503 116.483 209.096 110.731 212.596 110.731C214.841 110.731 215.934 108.156 214.449 106.367C206.1 96.3056 222.234 73.6632 235.605 76.6792C241.572 78.0252 246.302 83.6302 246.367 89.4312C246.384 90.9712 247.505 94.4811 248.858 97.231C255.362 110.453 243.304 126.225 232.777 118.263C229.924 116.105 229.837 116.226 229.837 122.341C229.837 128.93 225.932 133.292 219.049 134.393C216.068 134.87 214.933 135.67 213.775 138.116C212.964 139.829 211.55 142.415 210.63 143.863C208.984 146.456 209.02 146.565 213.147 151.254C215.451 153.871 217.337 156.555 217.337 157.218C217.337 157.882 218.074 159.901 218.974 161.706C222.148 168.067 221.073 181.731 217.4 181.731C217.052 181.731 215.97 183.081 214.995 184.731C214.02 186.381 212.573 187.731 211.779 187.731C209.595 187.731 210.044 189.817 212.863 192.76C216.384 196.435 217.425 204.867 214.728 207.858C209.503 213.649 203.05 218.01 198.064 219.122C193.944 220.041 192.83 220.705 192.804 222.259C192.669 230.389 188.242 235.387 179.682 237.077C172.845 238.427 172.072 240.31 177.577 242.203C190.358 246.597 192.892 257.693 182.442 263.506C176.521 266.799 172.426 266.758 167.515 263.354C163.894 260.845 163.161 260.686 159.679 261.653C153.737 263.303 147.363 262.934 141.337 260.593C135.874 258.47 130.724 257.068 124.689 256.061C118.715 255.064 115.151 249.943 114.592 241.551C114.184 235.417 113.671 233.745 111.425 231.231C109.951 229.581 107.986 226.544 107.058 224.481C105.42 220.844 105.211 220.731 100.164 220.731C93.7935 220.731 89.0798 217.922 86.2168 212.42C83.0468 206.327 78.9427 207.336 78.8477 214.231C78.8097 216.981 78.4233 220.817 77.9883 222.755C77.2354 226.113 77.3507 226.324 80.4366 227.255C90.5004 230.29 90.3981 247.946 80.2881 252.934C55.9904 264.92 26.2411 240.473 47.875 226.298C49.556 225.196 50.1805 223.494 50.6895 218.626C51.0495 215.185 52.1298 211.262 53.0908 209.91C54.0507 208.557 55.2736 206.856 55.8086 206.127C56.5016 205.184 56.0161 204.003 54.1221 202.017C50.6273 198.355 49.3112 194.657 49.9981 190.428C50.3281 188.392 50.1033 186.705 49.4463 186.299C48.8364 185.922 48.337 184.345 48.3369 182.794C48.3369 181.244 47.6012 179.366 46.7032 178.621C43.9996 176.376 34.3369 162.856 34.3369 161.317C34.3368 160.529 32.7627 157.822 30.8389 155.302C28.915 152.781 27.3998 150.384 27.4727 149.975C28.4457 144.478 24.6467 141.425 20.4727 144.348C18.2547 145.902 11.2222 145.776 6.86624 144.104C-3.23648 140.227 -1.78745 115.126 8.56839 114.62C14.8594 114.313 23.3369 117.551 23.3369 120.261C23.3372 122.018 26.1103 124.731 27.9073 124.731C28.6933 124.731 29.3369 124.041 29.3369 123.198C29.3372 109.814 50.1851 94.3087 69.8369 93.0767C82.9305 92.2547 88.2617 93.4969 97.1895 99.4468C101.45 102.287 108.337 96.8837 108.337 90.7007C108.337 88.6598 109.172 86.4706 110.483 85.0747C112.734 82.6789 111.804 79.7313 108.796 79.731C106.403 79.731 103.556 73.5422 104.077 69.4702C105.046 61.8843 117.633 57.7673 123.289 63.1861C125.639 65.4379 126.708 65.8083 129.245 65.2515C133.054 64.4145 133.128 63.4739 129.587 60.895C121.36 54.902 128.195 37.9086 139.837 35.4146ZM227.337 203.429C239.094 199.654 252.722 207.291 252.722 217.653C252.722 228.495 231.921 239.44 223.927 232.806C221.665 230.929 220.403 232.363 221.012 236.118C222.097 242.802 213.511 254.731 207.616 254.731C194.246 254.731 188.8 246.232 194.457 234.198C198.202 226.231 204.453 223.784 213.238 226.847C217.536 228.345 217.88 227.687 215.921 221.697C213.052 212.925 216.89 206.783 227.337 203.429ZM179.7 192.695C179.049 192.044 178.051 192.413 176.774 193.779C168.37 202.768 165.063 203.713 156.506 199.571C149.746 196.298 146.45 201.459 151.961 206.689C154.209 208.822 154.482 209.744 154.038 213.682C153.54 218.098 153.664 218.344 158.682 222.967C163.836 227.716 163.837 227.716 164.351 222.867C164.987 216.872 169.522 209.969 174.077 208.066C177.094 206.805 177.337 206.359 177.337 202.046C177.337 199.092 177.95 196.711 179.013 195.536C180.117 194.315 180.352 193.347 179.7 192.695ZM13.7354 183.697C21.2304 180.362 25.9355 181.225 32.1055 187.066C40.5644 195.074 37.0287 205.612 24.6309 209.343C9.40689 213.925 -0.704596 190.124 13.7354 183.697ZM252.956 148.251C262.129 145.732 267.81 147.203 270.983 152.921C277.397 164.478 257.352 180.919 247.179 172.445C237.093 164.044 240.016 151.805 252.956 148.251ZM175.822 162.709C174.842 161.123 172.482 161.589 171.417 163.579C170.283 165.699 171.384 170.913 173.086 171.481C174.366 171.905 176.761 164.229 175.822 162.709ZM150.152 111.481C150.492 108.526 149.534 108.177 145.513 109.79C142.108 111.155 143.035 114.231 146.851 114.231C149.365 114.231 149.886 113.796 150.152 111.481ZM156.837 98.731C156.012 98.731 155.337 99.406 155.337 100.231C155.337 101.056 156.012 101.731 156.837 101.731C157.662 101.731 158.337 101.056 158.337 100.231C158.337 99.4061 157.662 98.7312 156.837 98.731ZM131.337 85.6382C131.337 82.8002 129.491 81.4004 127.429 82.6743C126.501 83.2473 126.685 84.2905 128.185 86.9605C129.273 88.9003 130.316 91.46 130.5 92.6489C130.685 93.8379 131.287 94.905 131.837 95.021C133.25 95.317 133.729 90.7224 132.422 89.4155C131.825 88.8185 131.337 87.1191 131.337 85.6382ZM79.8369 36.9214C89.8819 31.2487 102.893 46.8492 95.6582 55.8921C92.2024 60.211 91.2042 63.981 91.8701 70.1997C92.5322 76.3837 92.4821 76.5638 89.0371 80.3628C76.0391 94.6997 55.1533 78.5005 64.8242 61.5825C66.3391 58.9327 67.3172 55.6452 67.3242 53.1753C67.3402 47.7053 72.4159 41.1124 79.8369 36.9214ZM120.896 78.731C120.653 78.731 120.177 79.1811 119.837 79.731C119.497 80.2809 119.695 80.7309 120.277 80.731C120.859 80.731 121.337 80.281 121.337 79.731C121.337 79.181 121.139 78.731 120.896 78.731ZM205.485 39.4898C219.631 37.0418 227.598 50.9151 220.597 65.8081C213.393 81.13 190.339 77.7861 190.091 61.3823C189.98 54.0764 199.509 40.5238 205.485 39.4898ZM51.8369 14.5542C64.4449 5.86451 75.68 19.3671 68.6241 34.731C62.385 48.3167 41.3372 43.775 41.3369 28.8423C41.3369 26.0333 47.6529 17.4382 51.8369 14.5542ZM108.212 2.17043C121.43 -6.81137 141.546 14.0924 133.237 28.1743C132.084 30.1297 130.819 31.7302 130.427 31.731C130.035 31.731 128.813 32.5703 127.713 33.5962C119.456 41.2872 107.786 35.7761 103.367 22.0991C100.152 12.1461 101.463 6.75643 108.212 2.17043Z" fill="#9BA7D2"/>
</g>
<path id="stroke0_77_1622_ref" d="M6.66675 31.6667V16.6667C6.66675 16.1389 6.78508 15.6389 7.02175 15.1667C7.25841 14.6945 7.58453 14.3056 8.00008 14L18.0001 6.50001C18.5834 6.05557 19.2501 5.83334 20.0001 5.83334C20.7501 5.83334 21.4167 6.05557 22.0001 6.50001L32.0001 14C32.4168 14.3056 32.7434 14.6945 32.9801 15.1667C33.2167 15.6389 33.3345 16.1389 33.3334 16.6667V31.6667C33.3334 32.5833 33.0068 33.3683 32.3534 34.0217C31.7001 34.675 30.9156 35.0011 30.0001 35H25.0001C24.5279 35 24.1323 34.84 23.8134 34.52C23.4945 34.2 23.3345 33.8045 23.3334 33.3333V25C23.3334 24.5278 23.1734 24.1322 22.8534 23.8133C22.5334 23.4945 22.1379 23.3345 21.6667 23.3333H18.3334C17.8612 23.3333 17.4656 23.4933 17.1467 23.8133C16.8279 24.1333 16.6679 24.5289 16.6667 25V33.3333C16.6667 33.8056 16.5067 34.2017 16.1867 34.5217C15.8667 34.8417 15.4712 35.0011 15.0001 35H10.0001C9.08341 35 8.29897 34.6739 7.64675 34.0217C6.99453 33.3695 6.66786 32.5845 6.66675 31.6667Z"/>
</defs>
</svg>
