<svg width="80" height="80" viewBox="0 0 80 80" fill="none" xmlns="http://www.w3.org/2000/svg" xmlns:xlink="http://www.w3.org/1999/xlink">
<path fill-rule="evenodd" clip-rule="evenodd" d="M40 73.3334C58.41 73.3334 73.3333 58.41 73.3333 40C73.3333 21.59 58.41 6.66669 40 6.66669C21.59 6.66669 6.66663 21.59 6.66663 40C6.66663 58.41 21.59 73.3334 40 73.3334ZM42.5 30C42.5 29.337 42.2366 28.7011 41.7677 28.2323C41.2989 27.7634 40.663 27.5 40 27.5C39.3369 27.5 38.701 27.7634 38.2322 28.2323C37.7634 28.7011 37.5 29.337 37.5 30V37.5H30C29.3369 37.5 28.701 37.7634 28.2322 38.2323C27.7634 38.7011 27.5 39.337 27.5 40C27.5 40.6631 27.7634 41.2989 28.2322 41.7678C28.701 42.2366 29.3369 42.5 30 42.5H37.5V50C37.5 50.6631 37.7634 51.2989 38.2322 51.7678C38.701 52.2366 39.3369 52.5 40 52.5C40.663 52.5 41.2989 52.2366 41.7677 51.7678C42.2366 51.2989 42.5 50.6631 42.5 50V42.5H50C50.663 42.5 51.2989 42.2366 51.7677 41.7678C52.2366 41.2989 52.5 40.6631 52.5 40C52.5 39.337 52.2366 38.7011 51.7677 38.2323C51.2989 37.7634 50.663 37.5 50 37.5H42.5V30Z" fill="#7C8BBF"/>
<use xlink:href="#stroke0_24_298" transform="translate(40.9807 74.3594) scale(0.00689659) rotate(177.697)"/>
<use xlink:href="#stroke0_24_298" transform="translate(39.402 73.1382) scale(0.00524771) rotate(-38.3546)"/>
<use xlink:href="#stroke0_24_298" transform="translate(40.5535 74.4167) scale(0.00554591) rotate(-122.153)"/>
<use xlink:href="#stroke0_24_298" transform="translate(39.9948 73.1088) scale(0.00659939) rotate(-40.2058)"/>
<use xlink:href="#stroke0_24_298" transform="translate(43.0583 73.672) scale(0.00627099) rotate(148.895)"/>
<use xlink:href="#stroke0_24_298" transform="translate(41.582 72.2931) scale(0.00580201) rotate(5.15522)"/>
<use xlink:href="#stroke0_24_298" transform="translate(44.2028 72.3064) scale(0.00806291) rotate(98.1568)"/>
<use xlink:href="#stroke0_24_298" transform="translate(42.9163 72.1297) scale(0.00542997) rotate(19.917)"/>
<use xlink:href="#stroke0_24_298" transform="translate(44.4361 71.6302) scale(0.00780039) rotate(63.6611)"/>
<use xlink:href="#stroke0_24_298" transform="translate(45.1415 71.773) scale(0.0071718) rotate(71.7935)"/>
<use xlink:href="#stroke0_24_298" transform="translate(43.5438 72.8823) scale(0.00668657) rotate(-44.8036)"/>
<use xlink:href="#stroke0_24_298" transform="translate(44.0025 73.0103) scale(0.00696686) rotate(-53.2837)"/>
<use xlink:href="#stroke0_24_298" transform="translate(45.7408 74.0663) scale(0.00617906) rotate(-130.228)"/>
<use xlink:href="#stroke0_24_298" transform="translate(45.4353 72.1453) scale(0.00529198) rotate(-16.2336)"/>
<use xlink:href="#stroke0_24_298" transform="translate(45.1979 72.5768) scale(0.00804587) rotate(-46.8153)"/>
<use xlink:href="#stroke0_24_298" transform="translate(47.5655 73.7658) scale(0.00615175) rotate(-146.899)"/>
<use xlink:href="#stroke0_24_298" transform="translate(46.6578 71.4928) scale(0.00740356) rotate(-12.2756)"/>
<use xlink:href="#stroke0_24_298" transform="translate(47.6394 71.0562) scale(0.00696827) rotate(8.62461)"/>
<use xlink:href="#stroke0_24_298" transform="translate(50.4697 71.7967) scale(0.00754336) rotate(119.461)"/>
<use xlink:href="#stroke0_24_298" transform="translate(48.3835 72.3818) scale(0.00542468) rotate(-69.5771)"/>
<use xlink:href="#stroke0_24_298" transform="translate(48.8083 72.568) scale(0.00611825) rotate(-83.0704)"/>
<use xlink:href="#stroke0_24_298" transform="translate(49.791 70.1989) scale(0.00776235) rotate(20.8743)"/>
<use xlink:href="#stroke0_24_298" transform="translate(51.7925 70.7977) scale(0.00582933) rotate(93.7632)"/>
<use xlink:href="#stroke0_24_298" transform="translate(51.6438 72.7723) scale(0.00702078) rotate(-152.2)"/>
<use xlink:href="#stroke0_24_298" transform="translate(51.0139 69.9862) scale(0.00696922) rotate(7.96185)"/>
<use xlink:href="#stroke0_24_298" transform="translate(51.0132 70.8059) scale(0.00619187) rotate(-39.7586)"/>
<use xlink:href="#stroke0_24_298" transform="translate(52.7093 71.9329) scale(0.00532517) rotate(-140.173)"/>
<use xlink:href="#stroke0_24_298" transform="translate(53.9684 70.0836) scale(0.0053127) rotate(98.2861)"/>
<use xlink:href="#stroke0_24_298" transform="translate(53.8767 71.7718) scale(0.00648677) rotate(-156.525)"/>
<use xlink:href="#stroke0_24_298" transform="translate(55.5331 69.881) scale(0.00786249) rotate(117.259)"/>
<use xlink:href="#stroke0_24_298" transform="translate(53.666 69.1634) scale(0.0057142) rotate(0.78649)"/>
<use xlink:href="#stroke0_24_298" transform="translate(55.8227 70.2102) scale(0.0052053) rotate(149.748)"/>
<use xlink:href="#stroke0_24_298" transform="translate(54.5037 70.9702) scale(0.00728956) rotate(-109.594)"/>
<use xlink:href="#stroke0_24_298" transform="translate(55.4107 70.5721) scale(0.00569653) rotate(-125.858)"/>
<use xlink:href="#stroke0_24_298" transform="translate(56.4613 70.2719) scale(0.00547345) rotate(-160.372)"/>
<use xlink:href="#stroke0_24_298" transform="translate(55.1871 68.8535) scale(0.0060779) rotate(-41.3657)"/>
<use xlink:href="#stroke0_24_298" transform="translate(58.1958 69.1422) scale(0.00677915) rotate(147.05)"/>
<use xlink:href="#stroke0_24_298" transform="translate(58.5343 67.5019) scale(0.00758485) rotate(92.3649)"/>
<use xlink:href="#stroke0_24_298" transform="translate(59.2855 67.9394) scale(0.00729741) rotate(121.97)"/>
<use xlink:href="#stroke0_24_298" transform="translate(59.7714 68.0033) scale(0.00730918) rotate(135.955)"/>
<use xlink:href="#stroke0_24_298" transform="translate(59.7522 68.19) scale(0.00589191) rotate(160.26)"/>
<use xlink:href="#stroke0_24_298" transform="translate(58.1623 68.0819) scale(0.00556931) rotate(-87.8192)"/>
<use xlink:href="#stroke0_24_298" transform="translate(60.2688 68.2405) scale(0.00692537) rotate(-174.209)"/>
<use xlink:href="#stroke0_24_298" transform="translate(59.2513 65.5959) scale(0.00645315) rotate(14.5874)"/>
<use xlink:href="#stroke0_24_298" transform="translate(60.1751 67.628) scale(0.00544371) rotate(-136.67)"/>
<use xlink:href="#stroke0_24_298" transform="translate(62.0466 66.6425) scale(0.00734624) rotate(148.042)"/>
<use xlink:href="#stroke0_24_298" transform="translate(59.7405 66.1168) scale(0.00623181) rotate(-58.9423)"/>
<use xlink:href="#stroke0_24_298" transform="translate(62.7359 65.1745) scale(0.006833) rotate(115.084)"/>
<use xlink:href="#stroke0_24_298" transform="translate(60.8713 66.4065) scale(0.00731113) rotate(-100.632)"/>
<use xlink:href="#stroke0_24_298" transform="translate(62.8508 63.7292) scale(0.00642533) rotate(71.3787)"/>
<use xlink:href="#stroke0_24_298" transform="translate(61.0191 64.7738) scale(0.00773796) rotate(-58.0593)"/>
<use xlink:href="#stroke0_24_298" transform="translate(62.9331 62.6039) scale(0.00736672) rotate(38.5067)"/>
<use xlink:href="#stroke0_24_298" transform="translate(62.4476 63.1361) scale(0.00542327) rotate(-13.4271)"/>
<use xlink:href="#stroke0_24_298" transform="translate(64.677 62.3801) scale(0.00703097) rotate(84.0805)"/>
<use xlink:href="#stroke0_24_298" transform="translate(65.7018 63.2852) scale(0.0079096) rotate(140.219)"/>
<use xlink:href="#stroke0_24_298" transform="translate(65.0275 63.5794) scale(0.00526614) rotate(-171.572)"/>
<use xlink:href="#stroke0_24_298" transform="translate(65.8628 62.9683) scale(0.00626101) rotate(160.268)"/>
<use xlink:href="#stroke0_24_298" transform="translate(64.0143 61.6064) scale(0.00531486) rotate(-26.5434)"/>
<use xlink:href="#stroke0_24_298" transform="translate(63.9852 61.7386) scale(0.00651005) rotate(-51.2377)"/>
<use xlink:href="#stroke0_24_298" transform="translate(65.4301 60.062) scale(0.00613771) rotate(32.0875)"/>
<use xlink:href="#stroke0_24_298" transform="translate(64.6855 60.1929) scale(0.00710199) rotate(-18.8445)"/>
<use xlink:href="#stroke0_24_298" transform="translate(66.9936 61.3994) scale(0.00550299) rotate(-179.406)"/>
<use xlink:href="#stroke0_24_298" transform="translate(67.3602 59.3562) scale(0.00580117) rotate(86.3392)"/>
<use xlink:href="#stroke0_24_298" transform="translate(65.3339 60.4537) scale(0.00798062) rotate(-72.7669)"/>
<use xlink:href="#stroke0_24_298" transform="translate(66.4932 60.2438) scale(0.00523351) rotate(-102.46)"/>
<use xlink:href="#stroke0_24_298" transform="translate(68.0583 60.3172) scale(0.00721153) rotate(-164.855)"/>
<use xlink:href="#stroke0_24_298" transform="translate(67.0767 59.6931) scale(0.00625394) rotate(-110.08)"/>
<use xlink:href="#stroke0_24_298" transform="translate(68.7582 56.9005) scale(0.0071204) rotate(73.8538)"/>
<use xlink:href="#stroke0_24_298" transform="translate(69.5316 58.7073) scale(0.00794967) rotate(171.537)"/>
<use xlink:href="#stroke0_24_298" transform="translate(68.8469 58.4724) scale(0.00639345) rotate(-150.878)"/>
<use xlink:href="#stroke0_24_298" transform="translate(68.5315 58.1571) scale(0.00699605) rotate(-126.753)"/>
<use xlink:href="#stroke0_24_298" transform="translate(69.1588 55.2415) scale(0.00535603) rotate(46.4991)"/>
<use xlink:href="#stroke0_24_298" transform="translate(69.2933 57.2948) scale(0.00657692) rotate(-139.085)"/>
<use xlink:href="#stroke0_24_298" transform="translate(67.9471 55.6065) scale(0.00776998) rotate(-53.8665)"/>
<use xlink:href="#stroke0_24_298" transform="translate(70.016 56.24) scale(0.00619646) rotate(-149.131)"/>
<use xlink:href="#stroke0_24_298" transform="translate(69.1244 53.9167) scale(0.00529178) rotate(-10.1637)"/>
<use xlink:href="#stroke0_24_298" transform="translate(71.2589 53.1882) scale(0.00707956) rotate(89.1158)"/>
<use xlink:href="#stroke0_24_298" transform="translate(71.2564 52.2858) scale(0.00779594) rotate(72.9142)"/>
<use xlink:href="#stroke0_24_298" transform="translate(69.9409 52.1372) scale(0.00603695) rotate(7.69931)"/>
<use xlink:href="#stroke0_24_298" transform="translate(72.196 52.9519) scale(0.00677877) rotate(140.937)"/>
<use xlink:href="#stroke0_24_298" transform="translate(71.4606 53.5767) scale(0.00684914) rotate(-157.041)"/>
<use xlink:href="#stroke0_24_298" transform="translate(72.2087 52.3824) scale(0.00573116) rotate(161.435)"/>
<use xlink:href="#stroke0_24_298" transform="translate(70.0753 51.3706) scale(0.00617121) rotate(-48.79)"/>
<use xlink:href="#stroke0_24_298" transform="translate(72.2048 50.1192) scale(0.00533321) rotate(81.9111)"/>
<use xlink:href="#stroke0_24_298" transform="translate(71.1158 49.3753) scale(0.00618502) rotate(17.419)"/>
<use xlink:href="#stroke0_24_298" transform="translate(73.0023 50.3195) scale(0.00605025) rotate(141.83)"/>
<use xlink:href="#stroke0_24_298" transform="translate(72.7304 50.4254) scale(0.00540576) rotate(173.658)"/>
<use xlink:href="#stroke0_24_298" transform="translate(71.4058 50.3719) scale(0.00623374) rotate(-109.352)"/>
<use xlink:href="#stroke0_24_298" transform="translate(73.3895 48.9065) scale(0.0060018) rotate(136.196)"/>
<use xlink:href="#stroke0_24_298" transform="translate(73.393 48.5404) scale(0.0055057) rotate(139.618)"/>
<use xlink:href="#stroke0_24_298" transform="translate(73.6873 47.4724) scale(0.00670505) rotate(112.122)"/>
<use xlink:href="#stroke0_24_298" transform="translate(73.3502 48.3091) scale(0.00584689) rotate(176.096)"/>
<use xlink:href="#stroke0_24_298" transform="translate(72.855 48.1448) scale(0.00552601) rotate(-152.139)"/>
<use xlink:href="#stroke0_24_298" transform="translate(73.8872 46.6443) scale(0.00588017) rotate(132.887)"/>
<use xlink:href="#stroke0_24_298" transform="translate(73.2766 44.7515) scale(0.00712269) rotate(61.5669)"/>
<use xlink:href="#stroke0_24_298" transform="translate(73.6877 44.1532) scale(0.00791592) rotate(71.4838)"/>
<use xlink:href="#stroke0_24_298" transform="translate(71.7201 45.4756) scale(0.00640154) rotate(-68.6938)"/>
<use xlink:href="#stroke0_24_298" transform="translate(74.1216 45.6373) scale(0.00767284) rotate(177.826)"/>
<use xlink:href="#stroke0_24_298" transform="translate(74.0412 42.8191) scale(0.00708325) rotate(81.4392)"/>
<use xlink:href="#stroke0_24_298" transform="translate(72.7801 41.9714) scale(0.00715835) rotate(26.3557)"/>
<use xlink:href="#stroke0_24_298" transform="translate(74.1234 42.3238) scale(0.00531839) rotate(98.2583)"/>
<use xlink:href="#stroke0_24_298" transform="translate(71.9062 41.9927) scale(0.00688401) rotate(-29.3751)"/>
<use xlink:href="#stroke0_24_298" transform="translate(72.9143 40.9157) scale(0.00549426) rotate(22.8022)"/>
<use xlink:href="#stroke0_24_298" transform="translate(73.4522 42.7549) scale(0.00588382) rotate(-145.927)"/>
<use xlink:href="#stroke0_24_298" transform="translate(71.6801 41.2776) scale(0.00805225) rotate(-57.3774)"/>
<use xlink:href="#stroke0_24_298" transform="translate(73.6201 41.6181) scale(0.00559274) rotate(-153.214)"/>
<use xlink:href="#stroke0_24_298" transform="translate(73.1389 41.157) scale(0.00527674) rotate(-128.29)"/>
<use xlink:href="#stroke0_24_298" transform="translate(72.1753 39.1654) scale(0.00609733) rotate(-25.729)"/>
<use xlink:href="#stroke0_24_298" transform="translate(73.5961 40.3414) scale(0.00568713) rotate(-152.043)"/>
<use xlink:href="#stroke0_24_298" transform="translate(74.5681 39.4424) scale(0.00705779) rotate(161.319)"/>
<use xlink:href="#stroke0_24_298" transform="translate(74.2198 39.3887) scale(0.00748359) rotate(-176.025)"/>
<use xlink:href="#stroke0_24_298" transform="translate(73.7464 36.7138) scale(0.00526652) rotate(68.4362)"/>
<use xlink:href="#stroke0_24_298" transform="translate(72.3441 38.2281) scale(0.00643752) rotate(-97.1966)"/>
<use xlink:href="#stroke0_24_298" transform="translate(72.2572 35.4361) scale(0.00759437) rotate(5.56755)"/>
<use xlink:href="#stroke0_24_298" transform="translate(73.3193 34.6616) scale(0.00725142) rotate(49.3827)"/>
<use xlink:href="#stroke0_24_298" transform="translate(74.4969 36.3009) scale(0.00792685) rotate(158.212)"/>
<use xlink:href="#stroke0_24_298" transform="translate(73.0971 36.2872) scale(0.00610913) rotate(-144.565)"/>
<use xlink:href="#stroke0_24_298" transform="translate(73.4466 33.6763) scale(0.00525111) rotate(71.8201)"/>
<use xlink:href="#stroke0_24_298" transform="translate(73.6559 35.0642) scale(0.00584485) rotate(177.971)"/>
<use xlink:href="#stroke0_24_298" transform="translate(71.1923 33.2387) scale(0.00779626) rotate(-32.6401)"/>
<use xlink:href="#stroke0_24_298" transform="translate(74.1447 33.3584) scale(0.00750669) rotate(140.711)"/>
<use xlink:href="#stroke0_24_298" transform="translate(74.0164 32.6071) scale(0.00738012) rotate(133.429)"/>
<use xlink:href="#stroke0_24_298" transform="translate(70.9296 31.2564) scale(0.00783097) rotate(-21.5215)"/>
<use xlink:href="#stroke0_24_298" transform="translate(71.7679 30.4659) scale(0.00551111) rotate(16.8536)"/>
<use xlink:href="#stroke0_24_298" transform="translate(73.2971 30.7991) scale(0.00584983) rotate(117.971)"/>
<use xlink:href="#stroke0_24_298" transform="translate(72.4458 32.0848) scale(0.00762303) rotate(-155.669)"/>
<use xlink:href="#stroke0_24_298" transform="translate(72.4934 31.2419) scale(0.00654977) rotate(-168.128)"/>
<use xlink:href="#stroke0_24_298" transform="translate(72.0587 30.8635) scale(0.00642515) rotate(-155.326)"/>
<use xlink:href="#stroke0_24_298" transform="translate(71.5743 30.3035) scale(0.00553578) rotate(-140.679)"/>
<use xlink:href="#stroke0_24_298" transform="translate(70.9821 30.1696) scale(0.00737971) rotate(-123.809)"/>
<use xlink:href="#stroke0_24_298" transform="translate(72.1057 29.1553) scale(0.00641075) rotate(177.306)"/>
<use xlink:href="#stroke0_24_298" transform="translate(69.9327 26.9541) scale(0.00650379) rotate(-12.1865)"/>
<use xlink:href="#stroke0_24_298" transform="translate(69.7336 26.7875) scale(0.00591398) rotate(-23.1748)"/>
<use xlink:href="#stroke0_24_298" transform="translate(71.8187 27.506) scale(0.00645033) rotate(159.749)"/>
<use xlink:href="#stroke0_24_298" transform="translate(71.8415 26.1948) scale(0.00685832) rotate(122.607)"/>
<use xlink:href="#stroke0_24_298" transform="translate(70.835 26.9725) scale(0.00560459) rotate(-169.084)"/>
<use xlink:href="#stroke0_24_298" transform="translate(70.3254 24.2645) scale(0.00644952) rotate(53.2167)"/>
<use xlink:href="#stroke0_24_298" transform="translate(68.5895 25.1138) scale(0.006092) rotate(-47.6727)"/>
<use xlink:href="#stroke0_24_298" transform="translate(69.1151 23.7824) scale(0.00534224) rotate(12.5353)"/>
<use xlink:href="#stroke0_24_298" transform="translate(68.294 24.3716) scale(0.00562701) rotate(-48.4245)"/>
<use xlink:href="#stroke0_24_298" transform="translate(67.923 23.1242) scale(0.00742076) rotate(-16.4014)"/>
<use xlink:href="#stroke0_24_298" transform="translate(67.8945 24.1941) scale(0.0062249) rotate(-82.2564)"/>
<use xlink:href="#stroke0_24_298" transform="translate(68.9935 21.9012) scale(0.00589307) rotate(54.0098)"/>
<use xlink:href="#stroke0_24_298" transform="translate(68.0858 21.4711) scale(0.00623514) rotate(22.9779)"/>
<use xlink:href="#stroke0_24_298" transform="translate(68.3927 21.1419) scale(0.00567843) rotate(48.2996)"/>
<use xlink:href="#stroke0_24_298" transform="translate(67.0228 22.6215) scale(0.00587801) rotate(-83.4264)"/>
<use xlink:href="#stroke0_24_298" transform="translate(66.7006 21.5962) scale(0.00526131) rotate(-49.6899)"/>
<use xlink:href="#stroke0_24_298" transform="translate(67.037 20.1727) scale(0.00570521) rotate(15.514)"/>
<use xlink:href="#stroke0_24_298" transform="translate(68.015 19.7227) scale(0.00651152) rotate(74.4425)"/>
<use xlink:href="#stroke0_24_298" transform="translate(68.2697 20.4195) scale(0.00615266) rotate(129.875)"/>
<use xlink:href="#stroke0_24_298" transform="translate(65.2289 20.7005) scale(0.00781332) rotate(-73.4355)"/>
<use xlink:href="#stroke0_24_298" transform="translate(67.6866 19.1395) scale(0.00684297) rotate(113.145)"/>
<use xlink:href="#stroke0_24_298" transform="translate(65.8823 20.4714) scale(0.00628366) rotate(-131.611)"/>
<use xlink:href="#stroke0_24_298" transform="translate(67.2634 18.8996) scale(0.00759062) rotate(135.882)"/>
<use xlink:href="#stroke0_24_298" transform="translate(64.0428 18.1391) scale(0.00649764) rotate(-38.8055)"/>
<use xlink:href="#stroke0_24_298" transform="translate(65.0448 16.3932) scale(0.0076163) rotate(42.7503)"/>
<use xlink:href="#stroke0_24_298" transform="translate(65.6413 16.9912) scale(0.00552036) rotate(99.76)"/>
<use xlink:href="#stroke0_24_298" transform="translate(64.0215 16.2558) scale(0.00531176) rotate(21.4567)"/>
<use xlink:href="#stroke0_24_298" transform="translate(62.8674 15.9818) scale(0.00741128) rotate(-10.1125)"/>
<use xlink:href="#stroke0_24_298" transform="translate(64.515 17.7113) scale(0.00700532) rotate(-174.095)"/>
<use xlink:href="#stroke0_24_298" transform="translate(64.2749 15.3323) scale(0.00620997) rotate(89.7069)"/>
<use xlink:href="#stroke0_24_298" transform="translate(63.0636 14.773) scale(0.00536652) rotate(44.5327)"/>
<use xlink:href="#stroke0_24_298" transform="translate(63.8687 14.64) scale(0.00737247) rotate(94.8692)"/>
<use xlink:href="#stroke0_24_298" transform="translate(61.8507 14.2159) scale(0.00531741) rotate(17.5966)"/>
<use xlink:href="#stroke0_24_298" transform="translate(61.9345 13.7407) scale(0.00580855) rotate(39.4394)"/>
<use xlink:href="#stroke0_24_298" transform="translate(62.5601 15.2896) scale(0.0053737) rotate(166.336)"/>
<use xlink:href="#stroke0_24_298" transform="translate(60.609 13.6) scale(0.00525932) rotate(-1.34776)"/>
<use xlink:href="#stroke0_24_298" transform="translate(61.3362 12.5647) scale(0.00759775) rotate(55.129)"/>
<use xlink:href="#stroke0_24_298" transform="translate(59.6579 15.1192) scale(0.00796069) rotate(-107.614)"/>
<use xlink:href="#stroke0_24_298" transform="translate(59.6942 11.9825) scale(0.0069527) rotate(26.9996)"/>
<use xlink:href="#stroke0_24_298" transform="translate(59.8576 14.4871) scale(0.0070775) rotate(-147.954)"/>
<use xlink:href="#stroke0_24_298" transform="translate(59.0227 14.2547) scale(0.00745604) rotate(-133.063)"/>
<use xlink:href="#stroke0_24_298" transform="translate(57.4654 12.592) scale(0.00624837) rotate(-55.84)"/>
<use xlink:href="#stroke0_24_298" transform="translate(58.913 13.1396) scale(0.0053293) rotate(-167.984)"/>
<use xlink:href="#stroke0_24_298" transform="translate(57.0601 11.2302) scale(0.00582937) rotate(-11.6374)"/>
<use xlink:href="#stroke0_24_298" transform="translate(56.2665 10.9388) scale(0.00738845) rotate(-19.3359)"/>
<use xlink:href="#stroke0_24_298" transform="translate(58.0865 10.2183) scale(0.00739792) rotate(81.1989)"/>
<use xlink:href="#stroke0_24_298" transform="translate(56.4722 9.52276) scale(0.00768177) rotate(36.1589)"/>
<use xlink:href="#stroke0_24_298" transform="translate(57.4094 11.2844) scale(0.00652675) rotate(151.156)"/>
<use xlink:href="#stroke0_24_298" transform="translate(56.562 9.7441) scale(0.00581039) rotate(85.3385)"/>
<use xlink:href="#stroke0_24_298" transform="translate(54.8142 9.32913) scale(0.00579515) rotate(15.171)"/>
<use xlink:href="#stroke0_24_298" transform="translate(55.1263 11.6004) scale(0.00699584) rotate(-147.354)"/>
<use xlink:href="#stroke0_24_298" transform="translate(54.6438 11.4057) scale(0.00721011) rotate(-147.251)"/>
<use xlink:href="#stroke0_24_298" transform="translate(54.7666 10.6477) scale(0.00592737) rotate(-179.479)"/>
<use xlink:href="#stroke0_24_298" transform="translate(53.2607 10.7794) scale(0.00620755) rotate(-125.646)"/>
<use xlink:href="#stroke0_24_298" transform="translate(54.067 8.7264) scale(0.00544724) rotate(97.2216)"/>
<use xlink:href="#stroke0_24_298" transform="translate(52.1151 7.64233) scale(0.0078555) rotate(21.2376)"/>
<use xlink:href="#stroke0_24_298" transform="translate(52.3593 7.62645) scale(0.00652809) rotate(49.7634)"/>
<use xlink:href="#stroke0_24_298" transform="translate(51.0612 9.79798) scale(0.00587316) rotate(-105.433)"/>
<use xlink:href="#stroke0_24_298" transform="translate(52.6775 8.10296) scale(0.00737151) rotate(111.791)"/>
<use xlink:href="#stroke0_24_298" transform="translate(49.2277 9.002) scale(0.00771433) rotate(-69.9809)"/>
<use xlink:href="#stroke0_24_298" transform="translate(51.5608 8.20663) scale(0.00669278) rotate(129.558)"/>
<use xlink:href="#stroke0_24_298" transform="translate(49.0817 7.23025) scale(0.00536854) rotate(4.4975)"/>
<use xlink:href="#stroke0_24_298" transform="translate(48.5659 9.3072) scale(0.00734423) rotate(-110.338)"/>
<use xlink:href="#stroke0_24_298" transform="translate(47.994 6.54048) scale(0.00723628) rotate(11.0711)"/>
<use xlink:href="#stroke0_24_298" transform="translate(49.3087 8.07735) scale(0.00530324) rotate(151.414)"/>
<use xlink:href="#stroke0_24_298" transform="translate(48.8709 8.39136) scale(0.00625789) rotate(169.441)"/>
<use xlink:href="#stroke0_24_298" transform="translate(46.3491 7.15337) scale(0.00546999) rotate(-30.8845)"/>
<use xlink:href="#stroke0_24_298" transform="translate(48.3804 7.78164) scale(0.00720908) rotate(146.631)"/>
<use xlink:href="#stroke0_24_298" transform="translate(47.6742 7.53355) scale(0.00604503) rotate(142.648)"/>
<use xlink:href="#stroke0_24_298" transform="translate(45.9616 5.70527) scale(0.00725025) rotate(41.5893)"/>
<use xlink:href="#stroke0_24_298" transform="translate(45.968 8.44847) scale(0.00705234) rotate(-160.821)"/>
<use xlink:href="#stroke0_24_298" transform="translate(44.5587 8.47388) scale(0.0072288) rotate(-126.094)"/>
<use xlink:href="#stroke0_24_298" transform="translate(44.0633 8.53967) scale(0.00785186) rotate(-129.726)"/>
<use xlink:href="#stroke0_24_298" transform="translate(42.9354 7.56852) scale(0.00540385) rotate(-86.7097)"/>
<use xlink:href="#stroke0_24_298" transform="translate(42.4106 7.80601) scale(0.00658672) rotate(-94.443)"/>
<use xlink:href="#stroke0_24_298" transform="translate(42.1763 5.2915) scale(0.00787127) rotate(18.4604)"/>
<use xlink:href="#stroke0_24_298" transform="translate(41.3898 7.57888) scale(0.00594124) rotate(-91.683)"/>
<use xlink:href="#stroke0_24_298" transform="translate(42.9761 6.12936) scale(0.00632009) rotate(104.632)"/>
<use xlink:href="#stroke0_24_298" transform="translate(41.241 5.32696) scale(0.00664665) rotate(37.9948)"/>
<use xlink:href="#stroke0_24_298" transform="translate(39.3023 6.36913) scale(0.00737553) rotate(-36.9378)"/>
<use xlink:href="#stroke0_24_298" transform="translate(39.0527 6.52436) scale(0.00599563) rotate(-41.9187)"/>
<use xlink:href="#stroke0_24_298" transform="translate(40.246 8.14534) scale(0.00756044) rotate(-156.832)"/>
<use xlink:href="#stroke0_24_298" transform="translate(37.9656 7.57993) scale(0.00738658) rotate(-85.0633)"/>
<use xlink:href="#stroke0_24_298" transform="translate(39.9155 6.68803) scale(0.00601068) rotate(131.202)"/>
<use xlink:href="#stroke0_24_298" transform="translate(37.4874 7.89755) scale(0.00669944) rotate(-107.68)"/>
<use xlink:href="#stroke0_24_298" transform="translate(37.7507 8.2859) scale(0.0074877) rotate(-142.174)"/>
<use xlink:href="#stroke0_24_298" transform="translate(38.5254 6.16172) scale(0.00766861) rotate(107.831)"/>
<use xlink:href="#stroke0_24_298" transform="translate(37.1472 8.11995) scale(0.00688557) rotate(-164.504)"/>
<use xlink:href="#stroke0_24_298" transform="translate(37.1531 6.8857) scale(0.00528389) rotate(130.84)"/>
<use xlink:href="#stroke0_24_298" transform="translate(34.3756 7.84689) scale(0.00731481) rotate(-84.883)"/>
<use xlink:href="#stroke0_24_298" transform="translate(36.2227 7.27929) scale(0.00557862) rotate(144.264)"/>
<use xlink:href="#stroke0_24_298" transform="translate(34.65 8.17255) scale(0.00528101) rotate(-136.266)"/>
<use xlink:href="#stroke0_24_298" transform="translate(35.5425 7.90419) scale(0.00736741) rotate(160.524)"/>
<use xlink:href="#stroke0_24_298" transform="translate(32.5191 7.58342) scale(0.00602679) rotate(-63.8021)"/>
<use xlink:href="#stroke0_24_298" transform="translate(33.3387 5.81162) scale(0.00754363) rotate(46.1686)"/>
<use xlink:href="#stroke0_24_298" transform="translate(31.5046 7.57006) scale(0.00587276) rotate(-53.5121)"/>
<use xlink:href="#stroke0_24_298" transform="translate(32.777 8.51625) scale(0.00519356) rotate(-165.245)"/>
<use xlink:href="#stroke0_24_298" transform="translate(30.967 8.74007) scale(0.00676333) rotate(-98.9231)"/>
<use xlink:href="#stroke0_24_298" transform="translate(32.7197 7.60501) scale(0.0066744) rotate(123.356)"/>
<use xlink:href="#stroke0_24_298" transform="translate(32.1751 7.79291) scale(0.0063188) rotate(125.394)"/>
<use xlink:href="#stroke0_24_298" transform="translate(29.7936 9.28285) scale(0.00662065) rotate(-111.755)"/>
<use xlink:href="#stroke0_24_298" transform="translate(28.8174 8.22754) scale(0.00557679) rotate(-49.7888)"/>
<use xlink:href="#stroke0_24_298" transform="translate(30.9541 8.27204) scale(0.00704496) rotate(128.25)"/>
<use xlink:href="#stroke0_24_298" transform="translate(30.0304 7.48301) scale(0.00714262) rotate(86.2027)"/>
<use xlink:href="#stroke0_24_298" transform="translate(27.6364 7.46725) scale(0.00729828) rotate(7.35959)"/>
<use xlink:href="#stroke0_24_298" transform="translate(27.6696 10.4491) scale(0.00758505) rotate(-128.396)"/>
<use xlink:href="#stroke0_24_298" transform="translate(28.6968 8.49748) scale(0.00682303) rotate(105.291)"/>
<use xlink:href="#stroke0_24_298" transform="translate(25.8081 9.2727) scale(0.00576159) rotate(-47.3057)"/>
<use xlink:href="#stroke0_24_298" transform="translate(26.4825 10.9808) scale(0.00721902) rotate(-136.418)"/>
<use xlink:href="#stroke0_24_298" transform="translate(27.143 10.0639) scale(0.00537174) rotate(150.988)"/>
<use xlink:href="#stroke0_24_298" transform="translate(24.372 10.3267) scale(0.00672254) rotate(-67.06)"/>
<use xlink:href="#stroke0_24_298" transform="translate(24.2923 9.48082) scale(0.00557425) rotate(-16.3391)"/>
<use xlink:href="#stroke0_24_298" transform="translate(24.0712 9.44279) scale(0.00567241) rotate(-2.39111)"/>
<use xlink:href="#stroke0_24_298" transform="translate(24.5106 12.0777) scale(0.00758678) rotate(-141.523)"/>
<use xlink:href="#stroke0_24_298" transform="translate(23.4944 9.77463) scale(0.00534026) rotate(14.1733)"/>
<use xlink:href="#stroke0_24_298" transform="translate(22.3478 11.152) scale(0.00621035) rotate(-56.9517)"/>
<use xlink:href="#stroke0_24_298" transform="translate(23.8673 9.91955) scale(0.00717214) rotate(69.5782)"/>
<use xlink:href="#stroke0_24_298" transform="translate(21.2009 11.295) scale(0.00733547) rotate(-40.6351)"/>
<use xlink:href="#stroke0_24_298" transform="translate(21.4136 10.5474) scale(0.00723542) rotate(8.44525)"/>
<use xlink:href="#stroke0_24_298" transform="translate(23.074 11.2522) scale(0.00766603) rotate(98.7202)"/>
<use xlink:href="#stroke0_24_298" transform="translate(22.4441 12.3988) scale(0.00540541) rotate(132.355)"/>
<use xlink:href="#stroke0_24_298" transform="translate(19.8431 13.137) scale(0.00602151) rotate(-72.8968)"/>
<use xlink:href="#stroke0_24_298" transform="translate(20.2344 11.6231) scale(0.0064397) rotate(26.0761)"/>
<use xlink:href="#stroke0_24_298" transform="translate(19.407 12.0567) scale(0.0066908) rotate(7.22923)"/>
<use xlink:href="#stroke0_24_298" transform="translate(18.7172 13.7165) scale(0.00544267) rotate(-61.1097)"/>
<use xlink:href="#stroke0_24_298" transform="translate(17.9966 14.3103) scale(0.00740691) rotate(-69.2111)"/>
<use xlink:href="#stroke0_24_298" transform="translate(19.7192 15.5842) scale(0.00791857) rotate(-166.073)"/>
<use xlink:href="#stroke0_24_298" transform="translate(18.0093 13.5477) scale(0.00522184) rotate(9.24419)"/>
<use xlink:href="#stroke0_24_298" transform="translate(18.3124 16.0182) scale(0.00621816) rotate(-141.429)"/>
<use xlink:href="#stroke0_24_298" transform="translate(19.0032 14.09) scale(0.00734988) rotate(90.4959)"/>
<use xlink:href="#stroke0_24_298" transform="translate(18.4119 14.7969) scale(0.00531623) rotate(97.7043)"/>
<use xlink:href="#stroke0_24_298" transform="translate(16.2264 16.1819) scale(0.00533857) rotate(-75.7794)"/>
<use xlink:href="#stroke0_24_298" transform="translate(17.3982 17.1359) scale(0.00613677) rotate(-162.488)"/>
<use xlink:href="#stroke0_24_298" transform="translate(17.0194 17.3094) scale(0.00541673) rotate(-162.294)"/>
<use xlink:href="#stroke0_24_298" transform="translate(16.5857 15.4176) scale(0.0059259) rotate(56.6106)"/>
<use xlink:href="#stroke0_24_298" transform="translate(17.1185 16.7301) scale(0.00571589) rotate(122.492)"/>
<use xlink:href="#stroke0_24_298" transform="translate(15.7345 18.9274) scale(0.00797626) rotate(-143.371)"/>
<use xlink:href="#stroke0_24_298" transform="translate(13.5678 17.8589) scale(0.00790169) rotate(-52.8522)"/>
<use xlink:href="#stroke0_24_298" transform="translate(13.7399 18.2503) scale(0.00544394) rotate(-55.3154)"/>
<use xlink:href="#stroke0_24_298" transform="translate(15.7654 18.7384) scale(0.00598203) rotate(144.976)"/>
<use xlink:href="#stroke0_24_298" transform="translate(14.9984 19.6397) scale(0.00540405) rotate(-178.159)"/>
<use xlink:href="#stroke0_24_298" transform="translate(13.0403 19.9609) scale(0.00621973) rotate(-89.332)"/>
<use xlink:href="#stroke0_24_298" transform="translate(14.7854 18.8874) scale(0.00593339) rotate(101.914)"/>
<use xlink:href="#stroke0_24_298" transform="translate(11.899 19.228) scale(0.00800438) rotate(-24.1473)"/>
<use xlink:href="#stroke0_24_298" transform="translate(13.9951 20.894) scale(0.00519204) rotate(164.338)"/>
<use xlink:href="#stroke0_24_298" transform="translate(13.2229 21.6836) scale(0.00536952) rotate(-157.645)"/>
<use xlink:href="#stroke0_24_298" transform="translate(11.7192 19.7008) scale(0.00775494) rotate(9.00152)"/>
<use xlink:href="#stroke0_24_298" transform="translate(11.8236 20.2166) scale(0.0066008) rotate(22.372)"/>
<use xlink:href="#stroke0_24_298" transform="translate(11.2063 20.737) scale(0.00692422) rotate(8.34543)"/>
<use xlink:href="#stroke0_24_298" transform="translate(12.6152 21.5322) scale(0.00586001) rotate(89.1864)"/>
<use xlink:href="#stroke0_24_298" transform="translate(12.0539 21.3278) scale(0.00764273) rotate(63.8918)"/>
<use xlink:href="#stroke0_24_298" transform="translate(11.7022 21.9674) scale(0.00675502) rotate(63.7998)"/>
<use xlink:href="#stroke0_24_298" transform="translate(9.94414 23.0318) scale(0.00571989) rotate(-16.0322)"/>
<use xlink:href="#stroke0_24_298" transform="translate(10.0719 24.9227) scale(0.00537089) rotate(-101.993)"/>
<use xlink:href="#stroke0_24_298" transform="translate(11.3178 25.6277) scale(0.00694802) rotate(-173.047)"/>
<use xlink:href="#stroke0_24_298" transform="translate(11.1506 24.0925) scale(0.00566053) rotate(89.2089)"/>
<use xlink:href="#stroke0_24_298" transform="translate(11.4439 25.505) scale(0.00672341) rotate(140.044)"/>
<use xlink:href="#stroke0_24_298" transform="translate(9.76916 27.0612) scale(0.00639771) rotate(-134.708)"/>
<use xlink:href="#stroke0_24_298" transform="translate(8.58243 26.3119) scale(0.00533986) rotate(-56.9175)"/>
<use xlink:href="#stroke0_24_298" transform="translate(10.8 27.0186) scale(0.0067645) rotate(150.038)"/>
<use xlink:href="#stroke0_24_298" transform="translate(8.25006 27.1806) scale(0.0051826) rotate(-58.7643)"/>
<use xlink:href="#stroke0_24_298" transform="translate(8.44778 26.3678) scale(0.00596534) rotate(7.26924)"/>
<use xlink:href="#stroke0_24_298" transform="translate(9.7738 26.9354) scale(0.00572322) rotate(84.3818)"/>
<use xlink:href="#stroke0_24_298" transform="translate(10.0491 28.7864) scale(0.00662469) rotate(155.185)"/>
<use xlink:href="#stroke0_24_298" transform="translate(7.3532 29.5293) scale(0.00726339) rotate(-80.7604)"/>
<use xlink:href="#stroke0_24_298" transform="translate(7.88624 30.4747) scale(0.00661728) rotate(-114.418)"/>
<use xlink:href="#stroke0_24_298" transform="translate(8.25252 30.9322) scale(0.0060381) rotate(-136.797)"/>
<use xlink:href="#stroke0_24_298" transform="translate(7.52092 28.9759) scale(0.00644202) rotate(13.1956)"/>
<use xlink:href="#stroke0_24_298" transform="translate(8.24452 29.3195) scale(0.00638261) rotate(51.8227)"/>
<use xlink:href="#stroke0_24_298" transform="translate(8.94265 31.4821) scale(0.00556656) rotate(153.606)"/>
<use xlink:href="#stroke0_24_298" transform="translate(6.64395 30.3863) scale(0.00776626) rotate(-2.35481)"/>
<use xlink:href="#stroke0_24_298" transform="translate(7.05692 31.046) scale(0.0055261) rotate(11.4319)"/>
<use xlink:href="#stroke0_24_298" transform="translate(7.35542 33.5064) scale(0.00528985) rotate(-129.396)"/>
<use xlink:href="#stroke0_24_298" transform="translate(6.77839 31.6497) scale(0.00676272) rotate(13.5524)"/>
<use xlink:href="#stroke0_24_298" transform="translate(7.1367 34.6761) scale(0.00640234) rotate(-130.356)"/>
<use xlink:href="#stroke0_24_298" transform="translate(7.35106 32.3935) scale(0.00725883) rotate(46.1771)"/>
<use xlink:href="#stroke0_24_298" transform="translate(5.90485 34.0501) scale(0.00620784) rotate(-33.2791)"/>
<use xlink:href="#stroke0_24_298" transform="translate(6.05681 35.761) scale(0.00652391) rotate(-90.2968)"/>
<use xlink:href="#stroke0_24_298" transform="translate(8.1144 35.7402) scale(0.00580865) rotate(151.384)"/>
<use xlink:href="#stroke0_24_298" transform="translate(8.2898 36.6241) scale(0.00765392) rotate(161.261)"/>
<use xlink:href="#stroke0_24_298" transform="translate(8.04978 36.39) scale(0.00576381) rotate(133.393)"/>
<use xlink:href="#stroke0_24_298" transform="translate(8.06499 37.053) scale(0.00618061) rotate(142.795)"/>
<use xlink:href="#stroke0_24_298" transform="translate(7.42088 36.0788) scale(0.00666151) rotate(69.4957)"/>
<use xlink:href="#stroke0_24_298" transform="translate(6.81677 36.2815) scale(0.00752423) rotate(44.3849)"/>
<use xlink:href="#stroke0_24_298" transform="translate(5.4564 37.7627) scale(0.00675482) rotate(-22.5756)"/>
<use xlink:href="#stroke0_24_298" transform="translate(6.88168 39.9502) scale(0.0054906) rotate(-148.541)"/>
<use xlink:href="#stroke0_24_298" transform="translate(8.14386 39.987) scale(0.00780117) rotate(155.034)"/>
<use xlink:href="#stroke0_24_298" transform="translate(5.71625 40.3245) scale(0.00518526) rotate(-75.6044)"/>
<use xlink:href="#stroke0_24_298" transform="translate(5.46721 39.2704) scale(0.00780626) rotate(-6.98012)"/>
<use xlink:href="#stroke0_24_298" transform="translate(5.94753 39.6366) scale(0.00712341) rotate(11.4861)"/>
<use xlink:href="#stroke0_24_298" transform="translate(6.99959 42.9641) scale(0.00744854) rotate(-149.939)"/>
<use xlink:href="#stroke0_24_298" transform="translate(5.93187 43.0563) scale(0.00645599) rotate(-101.941)"/>
<use xlink:href="#stroke0_24_298" transform="translate(5.50351 41.7548) scale(0.0071147) rotate(-17.6646)"/>
<use xlink:href="#stroke0_24_298" transform="translate(5.71188 43.5523) scale(0.00592457) rotate(-75.4187)"/>
<use xlink:href="#stroke0_24_298" transform="translate(6.46559 44.7956) scale(0.00666161) rotate(-122.489)"/>
<use xlink:href="#stroke0_24_298" transform="translate(7.67216 45.3329) scale(0.00741594) rotate(-168.74)"/>
<use xlink:href="#stroke0_24_298" transform="translate(7.70146 46.0136) scale(0.00776899) rotate(-165.434)"/>
<use xlink:href="#stroke0_24_298" transform="translate(7.42363 44.0562) scale(0.00528382) rotate(61.4509)"/>
<use xlink:href="#stroke0_24_298" transform="translate(6.71865 44.3193) scale(0.00609173) rotate(22.7629)"/>
<use xlink:href="#stroke0_24_298" transform="translate(7.84979 44.665) scale(0.00723522) rotate(66.9973)"/>
<use xlink:href="#stroke0_24_298" transform="translate(5.82474 45.8517) scale(0.00806219) rotate(-22.5764)"/>
<use xlink:href="#stroke0_24_298" transform="translate(8.54294 48.1809) scale(0.00733432) rotate(174.248)"/>
<use xlink:href="#stroke0_24_298" transform="translate(7.18063 48.9703) scale(0.00656636) rotate(-122.574)"/>
<use xlink:href="#stroke0_24_298" transform="translate(6.21336 47.6793) scale(0.0075564) rotate(-29.2876)"/>
<use xlink:href="#stroke0_24_298" transform="translate(6.64227 48.2151) scale(0.00615763) rotate(-26.1132)"/>
<use xlink:href="#stroke0_24_298" transform="translate(7.17749 50.2999) scale(0.00663438) rotate(-104.459)"/>
<use xlink:href="#stroke0_24_298" transform="translate(9.27282 49.9734) scale(0.00603066) rotate(147.349)"/>
<use xlink:href="#stroke0_24_298" transform="translate(8.86447 49.0124) scale(0.0060371) rotate(72.914)"/>
<use xlink:href="#stroke0_24_298" transform="translate(9.1424 49.7565) scale(0.00522472) rotate(89.0731)"/>
<use xlink:href="#stroke0_24_298" transform="translate(9.58198 50.6336) scale(0.00548256) rotate(119.455)"/>
<use xlink:href="#stroke0_24_298" transform="translate(7.95943 50.0057) scale(0.00719948) rotate(14.1165)"/>
<use xlink:href="#stroke0_24_298" transform="translate(8.79107 50.6833) scale(0.00527462) rotate(40.7488)"/>
<use xlink:href="#stroke0_24_298" transform="translate(8.69484 50.9062) scale(0.00633353) rotate(29.5501)"/>
<use xlink:href="#stroke0_24_298" transform="translate(8.39496 51.3649) scale(0.00731871) rotate(11.0324)"/>
<use xlink:href="#stroke0_24_298" transform="translate(9.97141 54.1053) scale(0.00566402) rotate(-170.93)"/>
<use xlink:href="#stroke0_24_298" transform="translate(10.283 52.5198) scale(0.0061395) rotate(78.0886)"/>
<use xlink:href="#stroke0_24_298" transform="translate(8.51105 54.1047) scale(0.00591007) rotate(-55.8364)"/>
<use xlink:href="#stroke0_24_298" transform="translate(9.73175 52.9519) scale(0.0070985) rotate(33.664)"/>
<use xlink:href="#stroke0_24_298" transform="translate(11.2595 55.0737) scale(0.00556125) rotate(143.525)"/>
<use xlink:href="#stroke0_24_298" transform="translate(8.82536 55.6264) scale(0.00768301) rotate(-61.1145)"/>
<use xlink:href="#stroke0_24_298" transform="translate(10.5312 54.3592) scale(0.00689403) rotate(37.4962)"/>
<use xlink:href="#stroke0_24_298" transform="translate(10.0657 57.3616) scale(0.00676388) rotate(-102.877)"/>
<use xlink:href="#stroke0_24_298" transform="translate(10.948 57.8889) scale(0.00604821) rotate(-130.667)"/>
<use xlink:href="#stroke0_24_298" transform="translate(12.6167 58.1922) scale(0.00793288) rotate(172.688)"/>
<use xlink:href="#stroke0_24_298" transform="translate(12.0975 58.5227) scale(0.0052299) rotate(-163.105)"/>
<use xlink:href="#stroke0_24_298" transform="translate(13.1905 57.6668) scale(0.00644682) rotate(120.397)"/>
<use xlink:href="#stroke0_24_298" transform="translate(13.0599 57.3117) scale(0.00663437) rotate(82.6553)"/>
<use xlink:href="#stroke0_24_298" transform="translate(11.5211 60.1449) scale(0.0079957) rotate(-103.354)"/>
<use xlink:href="#stroke0_24_298" transform="translate(11.5319 60.2369) scale(0.00773532) rotate(-84.9688)"/>
<use xlink:href="#stroke0_24_298" transform="translate(11.9241 58.9227) scale(0.00718315) rotate(-14.4107)"/>
<use xlink:href="#stroke0_24_298" transform="translate(14.7828 61.1115) scale(0.00768027) rotate(166.334)"/>
<use xlink:href="#stroke0_24_298" transform="translate(15.0863 61.6333) scale(0.00764036) rotate(169.291)"/>
<use xlink:href="#stroke0_24_298" transform="translate(13.8637 59.9394) scale(0.00564576) rotate(26.5071)"/>
<use xlink:href="#stroke0_24_298" transform="translate(15.7014 61.1355) scale(0.00622228) rotate(118.991)"/>
<use xlink:href="#stroke0_24_298" transform="translate(14.5451 60.2794) scale(0.00753149) rotate(32.281)"/>
<use xlink:href="#stroke0_24_298" transform="translate(16.2216 62.4193) scale(0.00548303) rotate(143.526)"/>
<use xlink:href="#stroke0_24_298" transform="translate(16.8865 61.9678) scale(0.00752618) rotate(109.333)"/>
<use xlink:href="#stroke0_24_298" transform="translate(15.4474 61.8284) scale(0.00553099) rotate(23.8577)"/>
<use xlink:href="#stroke0_24_298" transform="translate(16.2395 62.1439) scale(0.00524284) rotate(50.1911)"/>
<use xlink:href="#stroke0_24_298" transform="translate(17.8265 63.4203) scale(0.00695291) rotate(126.544)"/>
<use xlink:href="#stroke0_24_298" transform="translate(17.2015 65.1145) scale(0.00629599) rotate(-158.516)"/>
<use xlink:href="#stroke0_24_298" transform="translate(16.0803 63.2363) scale(0.00708095) rotate(-4.5739)"/>
<use xlink:href="#stroke0_24_298" transform="translate(16.4863 65.6466) scale(0.00710466) rotate(-93.3607)"/>
<use xlink:href="#stroke0_24_298" transform="translate(19.5529 65.0271) scale(0.00780408) rotate(132.495)"/>
<use xlink:href="#stroke0_24_298" transform="translate(17.1932 65.6516) scale(0.00576772) rotate(-64.0174)"/>
<use xlink:href="#stroke0_24_298" transform="translate(19.27 66.7256) scale(0.00605633) rotate(-166.748)"/>
<use xlink:href="#stroke0_24_298" transform="translate(18.5286 67.1278) scale(0.00635717) rotate(-115.226)"/>
<use xlink:href="#stroke0_24_298" transform="translate(20.8828 66.5608) scale(0.00712889) rotate(143.754)"/>
<use xlink:href="#stroke0_24_298" transform="translate(19.7742 67.6266) scale(0.00530136) rotate(-135.953)"/>
<use xlink:href="#stroke0_24_298" transform="translate(21.7351 66.547) scale(0.00751189) rotate(120.864)"/>
<use xlink:href="#stroke0_24_298" transform="translate(21.4671 67.8985) scale(0.00558409) rotate(173.83)"/>
<use xlink:href="#stroke0_24_298" transform="translate(21.4202 66.2634) scale(0.00581559) rotate(63.3041)"/>
<use xlink:href="#stroke0_24_298" transform="translate(20.9527 69.2536) scale(0.00800024) rotate(-122.526)"/>
<use xlink:href="#stroke0_24_298" transform="translate(21.1358 67.1153) scale(0.0052785) rotate(1.67514)"/>
<use xlink:href="#stroke0_24_298" transform="translate(21.0513 67.1308) scale(0.0078837) rotate(-6.36112)"/>
<use xlink:href="#stroke0_24_298" transform="translate(23.7922 68.9006) scale(0.00569528) rotate(151.698)"/>
<use xlink:href="#stroke0_24_298" transform="translate(24.6168 68.1104) scale(0.00785647) rotate(107.753)"/>
<use xlink:href="#stroke0_24_298" transform="translate(23.7519 70.074) scale(0.00525171) rotate(-148.375)"/>
<use xlink:href="#stroke0_24_298" transform="translate(23.4271 70.4573) scale(0.00651168) rotate(-115.166)"/>
<use xlink:href="#stroke0_24_298" transform="translate(25.7491 69.1596) scale(0.00670844) rotate(118.536)"/>
<use xlink:href="#stroke0_24_298" transform="translate(25.2079 68.5432) scale(0.00586292) rotate(59.7625)"/>
<use xlink:href="#stroke0_24_298" transform="translate(26.2078 71.145) scale(0.00747281) rotate(-175.593)"/>
<use xlink:href="#stroke0_24_298" transform="translate(26.0058 71.2728) scale(0.00568418) rotate(-152.041)"/>
<use xlink:href="#stroke0_24_298" transform="translate(24.876 70.8354) scale(0.00670453) rotate(-69.8961)"/>
<use xlink:href="#stroke0_24_298" transform="translate(25.7444 71.2226) scale(0.00529644) rotate(-88.6339)"/>
<use xlink:href="#stroke0_24_298" transform="translate(28.5774 70.5949) scale(0.0075465) rotate(126.947)"/>
<use xlink:href="#stroke0_24_298" transform="translate(27.9183 72.3769) scale(0.00725273) rotate(-152.897)"/>
<use xlink:href="#stroke0_24_298" transform="translate(28.4546 70.0099) scale(0.00577479) rotate(63.2936)"/>
<use xlink:href="#stroke0_24_298" transform="translate(28.7341 72.3324) scale(0.00542414) rotate(-155.403)"/>
<use xlink:href="#stroke0_24_298" transform="translate(28.043 70.448) scale(0.00602184) rotate(2.51941)"/>
<use xlink:href="#stroke0_24_298" transform="translate(29.0195 72.9537) scale(0.00682844) rotate(-127.778)"/>
<use xlink:href="#stroke0_24_298" transform="translate(30.9992 71.6334) scale(0.00608361) rotate(127.065)"/>
<use xlink:href="#stroke0_24_298" transform="translate(28.8802 71.9975) scale(0.00647995) rotate(-53.9956)"/>
<use xlink:href="#stroke0_24_298" transform="translate(31.5775 73.0481) scale(0.00663162) rotate(-179.382)"/>
<use xlink:href="#stroke0_24_298" transform="translate(31.1808 71.0489) scale(0.00530241) rotate(44.4035)"/>
<use xlink:href="#stroke0_24_298" transform="translate(32.0061 71.195) scale(0.0056176) rotate(65.9249)"/>
<use xlink:href="#stroke0_24_298" transform="translate(30.7841 72.6869) scale(0.00589525) rotate(-64.463)"/>
<use xlink:href="#stroke0_24_298" transform="translate(32.5282 71.1075) scale(0.00662665) rotate(46.1816)"/>
<use xlink:href="#stroke0_24_298" transform="translate(34.1604 72.0207) scale(0.0066557) rotate(107.417)"/>
<use xlink:href="#stroke0_24_298" transform="translate(32.0263 73.4943) scale(0.00796355) rotate(-77.9441)"/>
<use xlink:href="#stroke0_24_298" transform="translate(33.9177 71.6902) scale(0.00532716) rotate(39.6398)"/>
<use xlink:href="#stroke0_24_298" transform="translate(34.0287 73.934) scale(0.0054674) rotate(-121.647)"/>
<use xlink:href="#stroke0_24_298" transform="translate(34.7392 71.3684) scale(0.00764703) rotate(37.3209)"/>
<use xlink:href="#stroke0_24_298" transform="translate(36.4664 73.2775) scale(0.00558125) rotate(144.796)"/>
<use xlink:href="#stroke0_24_298" transform="translate(36.0777 71.8994) scale(0.00586275) rotate(55.6443)"/>
<use xlink:href="#stroke0_24_298" transform="translate(37.154 74.0632) scale(0.00635417) rotate(177.302)"/>
<use xlink:href="#stroke0_24_298" transform="translate(37.3114 72.2544) scale(0.00538205) rotate(75.5554)"/>
<use xlink:href="#stroke0_24_298" transform="translate(38.485 72.9521) scale(0.00663612) rotate(120.404)"/>
<use xlink:href="#stroke0_24_298" transform="translate(38.4987 71.9646) scale(0.00742428) rotate(73.869)"/>
<use xlink:href="#stroke0_24_298" transform="translate(39.3386 74.444) scale(0.0076951) rotate(178.26)"/>
<use xlink:href="#stroke0_24_298" transform="translate(37.5062 74.1855) scale(0.00775001) rotate(-81.7312)"/>
<use xlink:href="#stroke0_24_298" transform="translate(38.525 72.507) scale(0.00566178) rotate(-3.85319)"/>
<use xlink:href="#stroke0_24_298" transform="translate(39.2383 72.2749) scale(0.00579823) rotate(13.8324)"/>
<use xlink:href="#stroke0_24_298" transform="translate(43.2355 31.157) scale(0.00666181) rotate(-171.043)"/>
<use xlink:href="#stroke0_24_298" transform="translate(42.9674 28.2136) scale(0.00671258) rotate(63.4815)"/>
<use xlink:href="#stroke0_24_298" transform="translate(43.2544 27.8704) scale(0.00719027) rotate(82.2339)"/>
<use xlink:href="#stroke0_24_298" transform="translate(40.5429 27.6878) scale(0.00805303) rotate(-19.623)"/>
<use xlink:href="#stroke0_24_298" transform="translate(42.5322 28.7594) scale(0.00531369) rotate(167.282)"/>
<use xlink:href="#stroke0_24_298" transform="translate(41.1291 26.7375) scale(0.00558474) rotate(32.2326)"/>
<use xlink:href="#stroke0_24_298" transform="translate(41.7628 26.4666) scale(0.00722064) rotate(78.1064)"/>
<use xlink:href="#stroke0_24_298" transform="translate(41.7969 27.5738) scale(0.00704008) rotate(133.357)"/>
<use xlink:href="#stroke0_24_298" transform="translate(38.8898 28.3816) scale(0.00628933) rotate(-91.2257)"/>
<use xlink:href="#stroke0_24_298" transform="translate(39.8002 28.9883) scale(0.00715938) rotate(-156.897)"/>
<use xlink:href="#stroke0_24_298" transform="translate(37.536 28.3836) scale(0.00695983) rotate(-73.2339)"/>
<use xlink:href="#stroke0_24_298" transform="translate(37.4674 27.0182) scale(0.00686361) rotate(0.0536546)"/>
<use xlink:href="#stroke0_24_298" transform="translate(36.724 29.5018) scale(0.00796532) rotate(-86.8909)"/>
<use xlink:href="#stroke0_24_298" transform="translate(36.3874 28.1442) scale(0.00764728) rotate(-15.7548)"/>
<use xlink:href="#stroke0_24_298" transform="translate(38.2245 30.607) scale(0.00628639) rotate(-170.024)"/>
<use xlink:href="#stroke0_24_298" transform="translate(36.6271 28.6304) scale(0.0080871) rotate(9.77426)"/>
<use xlink:href="#stroke0_24_298" transform="translate(37.9302 31.5657) scale(0.0053217) rotate(-161.728)"/>
<use xlink:href="#stroke0_24_298" transform="translate(38.9315 31.469) scale(0.00726397) rotate(148.153)"/>
<use xlink:href="#stroke0_24_298" transform="translate(38.7411 31.4652) scale(0.00604353) rotate(127.709)"/>
<use xlink:href="#stroke0_24_298" transform="translate(36.8683 32.9144) scale(0.00546453) rotate(-104.424)"/>
<use xlink:href="#stroke0_24_298" transform="translate(38.8937 32.2653) scale(0.00683327) rotate(123.749)"/>
<use xlink:href="#stroke0_24_298" transform="translate(38.1116 31.7348) scale(0.00668845) rotate(67.7844)"/>
<use xlink:href="#stroke0_24_298" transform="translate(37.0548 32.2336) scale(0.00636435) rotate(21.5349)"/>
<use xlink:href="#stroke0_24_298" transform="translate(38.5442 34.3395) scale(0.00547432) rotate(153.449)"/>
<use xlink:href="#stroke0_24_298" transform="translate(37.8722 35.5113) scale(0.00592152) rotate(-156.383)"/>
<use xlink:href="#stroke0_24_298" transform="translate(36.7031 35.6881) scale(0.00580566) rotate(-96.7641)"/>
<use xlink:href="#stroke0_24_298" transform="translate(38.6769 34.5275) scale(0.00678126) rotate(98.8938)"/>
<use xlink:href="#stroke0_24_298" transform="translate(36.9194 34.31) scale(0.00794626) rotate(20.6094)"/>
<use xlink:href="#stroke0_24_298" transform="translate(38.4095 35.5773) scale(0.0058446) rotate(90.5326)"/>
<use xlink:href="#stroke0_24_298" transform="translate(38.6242 36.923) scale(0.00549709) rotate(137.814)"/>
<use xlink:href="#stroke0_24_298" transform="translate(38.6078 37.4632) scale(0.0055149) rotate(143.963)"/>
<use xlink:href="#stroke0_24_298" transform="translate(36.8483 39.0062) scale(0.00761734) rotate(-122.492)"/>
<use xlink:href="#stroke0_24_298" transform="translate(37.6877 36.8601) scale(0.005363) rotate(95.9704)"/>
<use xlink:href="#stroke0_24_298" transform="translate(36.6924 38.7658) scale(0.00638342) rotate(-154.122)"/>
<use xlink:href="#stroke0_24_298" transform="translate(35.0379 36.4667) scale(0.00639718) rotate(3.11647)"/>
<use xlink:href="#stroke0_24_298" transform="translate(35.097 38.6349) scale(0.0056984) rotate(-123.994)"/>
<use xlink:href="#stroke0_24_298" transform="translate(35.9505 37.005) scale(0.00532597) rotate(104.557)"/>
<use xlink:href="#stroke0_24_298" transform="translate(33.1715 37.8421) scale(0.00672755) rotate(-62.9001)"/>
<use xlink:href="#stroke0_24_298" transform="translate(35.0655 38.5921) scale(0.00751528) rotate(176.325)"/>
<use xlink:href="#stroke0_24_298" transform="translate(34.7707 36.6111) scale(0.0080282) rotate(98.8578)"/>
<use xlink:href="#stroke0_24_298" transform="translate(33.7566 38.456) scale(0.00648699) rotate(177.137)"/>
<use xlink:href="#stroke0_24_298" transform="translate(33.7245 37.2525) scale(0.00696827) rotate(121.465)"/>
<use xlink:href="#stroke0_24_298" transform="translate(31.6023 38.7197) scale(0.00601775) rotate(-128.609)"/>
<use xlink:href="#stroke0_24_298" transform="translate(31.8253 36.2205) scale(0.00665973) rotate(62.4125)"/>
<use xlink:href="#stroke0_24_298" transform="translate(30.6334 38.6879) scale(0.00587279) rotate(-127.969)"/>
<use xlink:href="#stroke0_24_298" transform="translate(31.4183 36.6321) scale(0.00656743) rotate(91.4524)"/>
<use xlink:href="#stroke0_24_298" transform="translate(29.2709 38.4503) scale(0.00558426) rotate(-104.262)"/>
<use xlink:href="#stroke0_24_298" transform="translate(28.1222 37.6279) scale(0.00651869) rotate(-51.5575)"/>
<use xlink:href="#stroke0_24_298" transform="translate(27.506 37.2765) scale(0.00739619) rotate(-31.3956)"/>
<use xlink:href="#stroke0_24_298" transform="translate(29.3416 36.8075) scale(0.00718218) rotate(76.8469)"/>
<use xlink:href="#stroke0_24_298" transform="translate(27.7841 36.8475) scale(0.00769165) rotate(30.768)"/>
<use xlink:href="#stroke0_24_298" transform="translate(27.9918 37.7345) scale(0.00532792) rotate(51.5209)"/>
<use xlink:href="#stroke0_24_298" transform="translate(28.6614 38.613) scale(0.00576526) rotate(101.684)"/>
<use xlink:href="#stroke0_24_298" transform="translate(28.9162 39.4987) scale(0.00682371) rotate(124.491)"/>
<use xlink:href="#stroke0_24_298" transform="translate(28.6761 40.3451) scale(0.00577466) rotate(141.006)"/>
<use xlink:href="#stroke0_24_298" transform="translate(26.1766 40.5441) scale(0.00682036) rotate(-45.4778)"/>
<use xlink:href="#stroke0_24_298" transform="translate(27.799 39.8243) scale(0.00612194) rotate(43.7821)"/>
<use xlink:href="#stroke0_24_298" transform="translate(28.4371 40.4951) scale(0.00518966) rotate(67.5735)"/>
<use xlink:href="#stroke0_24_298" transform="translate(27.0718 42.9339) scale(0.00801269) rotate(-90.5714)"/>
<use xlink:href="#stroke0_24_298" transform="translate(27.7438 42.8751) scale(0.00592032) rotate(-85.1941)"/>
<use xlink:href="#stroke0_24_298" transform="translate(28.713 43.5707) scale(0.00629549) rotate(-119.266)"/>
<use xlink:href="#stroke0_24_298" transform="translate(28.5682 41.3414) scale(0.00763958) rotate(-2.38754)"/>
<use xlink:href="#stroke0_24_298" transform="translate(29.1125 43.1589) scale(0.006089) rotate(-80.3171)"/>
<use xlink:href="#stroke0_24_298" transform="translate(29.8682 41.4605) scale(0.00632478) rotate(4.40555)"/>
<use xlink:href="#stroke0_24_298" transform="translate(29.9037 43.3262) scale(0.00735883) rotate(-81.6565)"/>
<use xlink:href="#stroke0_24_298" transform="translate(31.5967 43.683) scale(0.00575994) rotate(-134.904)"/>
<use xlink:href="#stroke0_24_298" transform="translate(31.2827 43.5495) scale(0.0065967) rotate(-99.2253)"/>
<use xlink:href="#stroke0_24_298" transform="translate(33.4674 43.3834) scale(0.00594224) rotate(177.656)"/>
<use xlink:href="#stroke0_24_298" transform="translate(32.7007 43.5885) scale(0.00557039) rotate(-120.304)"/>
<use xlink:href="#stroke0_24_298" transform="translate(34.5387 41.7199) scale(0.006267) rotate(94.1842)"/>
<use xlink:href="#stroke0_24_298" transform="translate(33.526 43.5731) scale(0.00563411) rotate(-116.334)"/>
<use xlink:href="#stroke0_24_298" transform="translate(33.1028 42.8369) scale(0.00667359) rotate(-62.7937)"/>
<use xlink:href="#stroke0_24_298" transform="translate(33.7178 42.2832) scale(0.0059061) rotate(-38.318)"/>
<use xlink:href="#stroke0_24_298" transform="translate(33.9762 42.301) scale(0.00701559) rotate(-40.6707)"/>
<use xlink:href="#stroke0_24_298" transform="translate(36.9262 43.0576) scale(0.00571219) rotate(159.716)"/>
<use xlink:href="#stroke0_24_298" transform="translate(35.3114 41.2779) scale(0.00799688) rotate(-0.645598)"/>
<use xlink:href="#stroke0_24_298" transform="translate(38.5165 42.8622) scale(0.00754678) rotate(144.889)"/>
<use xlink:href="#stroke0_24_298" transform="translate(36.568 41.7775) scale(0.00577093) rotate(-10.2863)"/>
<use xlink:href="#stroke0_24_298" transform="translate(38.5304 42.029) scale(0.00686406) rotate(88.2471)"/>
<use xlink:href="#stroke0_24_298" transform="translate(36.3744 43.1909) scale(0.00563682) rotate(-34.5857)"/>
<use xlink:href="#stroke0_24_298" transform="translate(36.2088 43.9542) scale(0.0062754) rotate(-49.8599)"/>
<use xlink:href="#stroke0_24_298" transform="translate(36.3957 43.6949) scale(0.00638787) rotate(-15.7304)"/>
<use xlink:href="#stroke0_24_298" transform="translate(36.3356 44.9309) scale(0.00566591) rotate(-51.7007)"/>
<use xlink:href="#stroke0_24_298" transform="translate(36.7382 44.2568) scale(0.00638273) rotate(5.95941)"/>
<use xlink:href="#stroke0_24_298" transform="translate(36.8772 44.4294) scale(0.00757677) rotate(17.8634)"/>
<use xlink:href="#stroke0_24_298" transform="translate(37.7459 45.0554) scale(0.00664654) rotate(51.7606)"/>
<use xlink:href="#stroke0_24_298" transform="translate(38.2819 47.6498) scale(0.00540014) rotate(176.687)"/>
<use xlink:href="#stroke0_24_298" transform="translate(38.8319 47.6539) scale(0.00667214) rotate(145.47)"/>
<use xlink:href="#stroke0_24_298" transform="translate(38.266 46.8966) scale(0.0057286) rotate(81.93)"/>
<use xlink:href="#stroke0_24_298" transform="translate(38.811 47.8415) scale(0.00669648) rotate(113.45)"/>
<use xlink:href="#stroke0_24_298" transform="translate(36.4869 48.1223) scale(0.00576898) rotate(-17.1632)"/>
<use xlink:href="#stroke0_24_298" transform="translate(37.8571 47.9776) scale(0.0061716) rotate(57.7368)"/>
<use xlink:href="#stroke0_24_298" transform="translate(35.8452 49.6315) scale(0.00805753) rotate(-44.8867)"/>
<use xlink:href="#stroke0_24_298" transform="translate(36.789 51.4666) scale(0.00668479) rotate(-106.598)"/>
<use xlink:href="#stroke0_24_298" transform="translate(36.2081 50.9639) scale(0.00696861) rotate(-54.9058)"/>
<use xlink:href="#stroke0_24_298" transform="translate(39.0811 51.6347) scale(0.00627737) rotate(148.055)"/>
<use xlink:href="#stroke0_24_298" transform="translate(38.4256 50.5298) scale(0.00557423) rotate(57.5998)"/>
<use xlink:href="#stroke0_24_298" transform="translate(39.3182 51.3637) scale(0.00522173) rotate(100.242)"/>
<use xlink:href="#stroke0_24_298" transform="translate(37.4841 52.6598) scale(0.00667973) rotate(-69.1468)"/>
<use xlink:href="#stroke0_24_298" transform="translate(38.8846 50.7856) scale(0.00806789) rotate(27.3569)"/>
<use xlink:href="#stroke0_24_298" transform="translate(40.4828 53.3208) scale(0.0052656) rotate(-178.615)"/>
<use xlink:href="#stroke0_24_298" transform="translate(40.5978 53.6082) scale(0.00575113) rotate(-157.955)"/>
<use xlink:href="#stroke0_24_298" transform="translate(39.8989 53.2485) scale(0.00533658) rotate(-97.445)"/>
<use xlink:href="#stroke0_24_298" transform="translate(39.5749 52.0769) scale(0.00734203) rotate(-41.7481)"/>
<use xlink:href="#stroke0_24_298" transform="translate(41.2617 50.3842) scale(0.007757) rotate(30.5717)"/>
<use xlink:href="#stroke0_24_298" transform="translate(42.7275 52.8169) scale(0.00719643) rotate(-169.692)"/>
<use xlink:href="#stroke0_24_298" transform="translate(41.3002 50.395) scale(0.0057628) rotate(-10.092)"/>
<use xlink:href="#stroke0_24_298" transform="translate(43.8294 50.4232) scale(0.00702953) rotate(121.177)"/>
<use xlink:href="#stroke0_24_298" transform="translate(43.6871 49.6826) scale(0.00628584) rotate(108.739)"/>
<use xlink:href="#stroke0_24_298" transform="translate(41.536 48.9199) scale(0.00605871) rotate(-9.22777)"/>
<use xlink:href="#stroke0_24_298" transform="translate(41.4415 49.8236) scale(0.00583233) rotate(-76.7298)"/>
<use xlink:href="#stroke0_24_298" transform="translate(41.2693 48.7722) scale(0.00598228) rotate(-46.9607)"/>
<use xlink:href="#stroke0_24_298" transform="translate(43.4094 49.0665) scale(0.00557509) rotate(168.975)"/>
<use xlink:href="#stroke0_24_298" transform="translate(42.4878 49.2008) scale(0.00624011) rotate(-138.053)"/>
<use xlink:href="#stroke0_24_298" transform="translate(43.9905 47.3567) scale(0.00724608) rotate(129.639)"/>
<use xlink:href="#stroke0_24_298" transform="translate(41.8979 48.0585) scale(0.00642305) rotate(-111.501)"/>
<use xlink:href="#stroke0_24_298" transform="translate(42.1495 47.9106) scale(0.00782588) rotate(-126.028)"/>
<use xlink:href="#stroke0_24_298" transform="translate(43.7962 46.4223) scale(0.00704722) rotate(158.055)"/>
<use xlink:href="#stroke0_24_298" transform="translate(43.4789 46.3286) scale(0.00714696) rotate(179.678)"/>
<use xlink:href="#stroke0_24_298" transform="translate(41.396 43.8952) scale(0.00665236) rotate(-12.3349)"/>
<use xlink:href="#stroke0_24_298" transform="translate(44.1024 44.3082) scale(0.00782248) rotate(136.929)"/>
<use xlink:href="#stroke0_24_298" transform="translate(43.0835 44.9161) scale(0.00705705) rotate(-162.286)"/>
<use xlink:href="#stroke0_24_298" transform="translate(41.7074 44.3972) scale(0.00770592) rotate(-108.611)"/>
<use xlink:href="#stroke0_24_298" transform="translate(43.9625 43.1193) scale(0.00747244) rotate(155.152)"/>
<use xlink:href="#stroke0_24_298" transform="translate(42.4375 41.6158) scale(0.0051923) rotate(7.24433)"/>
<use xlink:href="#stroke0_24_298" transform="translate(42.0334 42.8325) scale(0.0073876) rotate(-61.2271)"/>
<use xlink:href="#stroke0_24_298" transform="translate(45.4297 43.17) scale(0.00733065) rotate(157.772)"/>
<use xlink:href="#stroke0_24_298" transform="translate(45.9774 42.8504) scale(0.00682389) rotate(145.851)"/>
<use xlink:href="#stroke0_24_298" transform="translate(43.8076 41.9692) scale(0.00698555) rotate(-26.9266)"/>
<use xlink:href="#stroke0_24_298" transform="translate(45.1765 43.4863) scale(0.00523388) rotate(-114.898)"/>
<use xlink:href="#stroke0_24_298" transform="translate(47.0539 41.353) scale(0.00729025) rotate(81.5422)"/>
<use xlink:href="#stroke0_24_298" transform="translate(47.8223 43.424) scale(0.00728319) rotate(169.463)"/>
<use xlink:href="#stroke0_24_298" transform="translate(48.1412 41.8632) scale(0.00576748) rotate(98.9596)"/>
<use xlink:href="#stroke0_24_298" transform="translate(48.7512 42.0359) scale(0.00607306) rotate(109.606)"/>
<use xlink:href="#stroke0_24_298" transform="translate(46.7727 42.3622) scale(0.00630207) rotate(-42.4939)"/>
<use xlink:href="#stroke0_24_298" transform="translate(49.4874 41.3562) scale(0.00711367) rotate(80.0247)"/>
<use xlink:href="#stroke0_24_298" transform="translate(47.9597 42.0631) scale(0.00577472) rotate(-27.023)"/>
<use xlink:href="#stroke0_24_298" transform="translate(49.0354 40.9463) scale(0.00801697) rotate(21.7463)"/>
<use xlink:href="#stroke0_24_298" transform="translate(51.6021 42.7098) scale(0.00706087) rotate(139.921)"/>
<use xlink:href="#stroke0_24_298" transform="translate(51.6912 43.7107) scale(0.00793932) rotate(-174.795)"/>
<use xlink:href="#stroke0_24_298" transform="translate(52.0686 41.4954) scale(0.00543748) rotate(92.6751)"/>
<use xlink:href="#stroke0_24_298" transform="translate(51.4044 43.0417) scale(0.00523189) rotate(-131.61)"/>
<use xlink:href="#stroke0_24_298" transform="translate(50.451 41.5052) scale(0.0069491) rotate(-42.5626)"/>
<use xlink:href="#stroke0_24_298" transform="translate(52.4674 42.4925) scale(0.00621819) rotate(-152.23)"/>
<use xlink:href="#stroke0_24_298" transform="translate(50.9151 40.3413) scale(0.00740821) rotate(-32.0585)"/>
<use xlink:href="#stroke0_24_298" transform="translate(51.9659 39.3366) scale(0.0053202) rotate(13.307)"/>
<use xlink:href="#stroke0_24_298" transform="translate(53.7907 39.4165) scale(0.00663405) rotate(112.994)"/>
<use xlink:href="#stroke0_24_298" transform="translate(53.3409 38.0814) scale(0.00753073) rotate(78.5653)"/>
<use xlink:href="#stroke0_24_298" transform="translate(51.0266 39.8989) scale(0.00781879) rotate(-92.7715)"/>
<use xlink:href="#stroke0_24_298" transform="translate(51.9967 36.8149) scale(0.00730991) rotate(47.2473)"/>
<use xlink:href="#stroke0_24_298" transform="translate(52.9778 37.41) scale(0.0080675) rotate(113.174)"/>
<use xlink:href="#stroke0_24_298" transform="translate(50.1968 38.6297) scale(0.00583718) rotate(-100.752)"/>
<use xlink:href="#stroke0_24_298" transform="translate(51.8907 37.8045) scale(0.0070514) rotate(141.773)"/>
<use xlink:href="#stroke0_24_298" transform="translate(50.7739 38.8517) scale(0.00782363) rotate(-171.512)"/>
<use xlink:href="#stroke0_24_298" transform="translate(48.8634 36.1841) scale(0.00680308) rotate(21.4401)"/>
<use xlink:href="#stroke0_24_298" transform="translate(47.7605 38.0351) scale(0.00592555) rotate(-74.6204)"/>
<use xlink:href="#stroke0_24_298" transform="translate(46.9939 36.8713) scale(0.0072771) rotate(-23.7723)"/>
<use xlink:href="#stroke0_24_298" transform="translate(46.9789 38.1676) scale(0.00540923) rotate(-85.4418)"/>
<use xlink:href="#stroke0_24_298" transform="translate(48.8152 37.6259) scale(0.00690067) rotate(136.49)"/>
<use xlink:href="#stroke0_24_298" transform="translate(45.8124 38.3485) scale(0.00664298) rotate(-86.9581)"/>
<use xlink:href="#stroke0_24_298" transform="translate(45.3727 36.9437) scale(0.00573123) rotate(-20.4535)"/>
<use xlink:href="#stroke0_24_298" transform="translate(45.835 36.3586) scale(0.00559159) rotate(34.1022)"/>
<use xlink:href="#stroke0_24_298" transform="translate(44.3858 36.8162) scale(0.00644578) rotate(-17.5656)"/>
<use xlink:href="#stroke0_24_298" transform="translate(45.057 36.3952) scale(0.00536902) rotate(40.613)"/>
<use xlink:href="#stroke0_24_298" transform="translate(44.1387 36.4189) scale(0.00580358) rotate(16.2483)"/>
<use xlink:href="#stroke0_24_298" transform="translate(43.4105 38.3528) scale(0.00567632) rotate(-95.4818)"/>
<use xlink:href="#stroke0_24_298" transform="translate(43.1752 38.9756) scale(0.00761385) rotate(-118.933)"/>
<use xlink:href="#stroke0_24_298" transform="translate(41.6773 38.2089) scale(0.00779023) rotate(-74.8374)"/>
<use xlink:href="#stroke0_24_298" transform="translate(43.1815 38.4191) scale(0.00523591) rotate(-170.068)"/>
<use xlink:href="#stroke0_24_298" transform="translate(43.5652 38.0343) scale(0.0066817) rotate(170.63)"/>
<use xlink:href="#stroke0_24_298" transform="translate(42.3806 35.3305) scale(0.00649798) rotate(36.2821)"/>
<use xlink:href="#stroke0_24_298" transform="translate(41.9233 37.1911) scale(0.00555941) rotate(-108.328)"/>
<use xlink:href="#stroke0_24_298" transform="translate(41.722 36.9253) scale(0.00694448) rotate(-105.617)"/>
<use xlink:href="#stroke0_24_298" transform="translate(43.2331 36.5813) scale(0.00774178) rotate(-165.99)"/>
<use xlink:href="#stroke0_24_298" transform="translate(41.1521 34.5202) scale(0.00656751) rotate(-44.3053)"/>
<use xlink:href="#stroke0_24_298" transform="translate(42.409 32.5876) scale(0.00732326) rotate(37.945)"/>
<use xlink:href="#stroke0_24_298" transform="translate(41.0978 33.9872) scale(0.007151) rotate(-66.273)"/>
<use xlink:href="#stroke0_24_298" transform="translate(41.3163 32.8003) scale(0.00587209) rotate(-36.9625)"/>
<use xlink:href="#stroke0_24_298" transform="translate(42.4617 33.887) scale(0.00636519) rotate(-136.92)"/>
<use xlink:href="#stroke0_24_298" transform="translate(43.6492 32.9096) scale(0.00691094) rotate(167.501)"/>
<use xlink:href="#stroke0_24_298" transform="translate(41.7819 30.055) scale(0.00787572) rotate(15.1097)"/>
<use xlink:href="#stroke0_24_298" transform="translate(43.6333 31.1897) scale(0.00558767) rotate(141.153)"/>
<use xlink:href="#stroke0_24_298" transform="translate(43.5106 31.0809) scale(0.00549703) rotate(158.104)"/>
<use xlink:href="#stroke0_24_298" transform="translate(42.1425 31.2224) scale(0.00547191) rotate(-120.088)"/>
<defs>
<g id="stroke0_24_298" data-figma-scatter-ref="stroke0_24_298_ref" data-figma-scatter="f0.28_w0_aj180_sj0.25_r0_s5116699428848245019_sw2">
<path d="M103.731 283.547C110.352 281.363 112.807 281.348 116.121 283.468C130.109 292.418 124.85 308.718 107.972 308.727C90.3768 308.737 87.0606 289.046 103.731 283.547ZM139.837 35.4146C140.937 35.1787 142.512 35.114 143.337 35.271C144.162 35.4281 146.516 35.8391 148.567 36.1851C155.802 37.4051 160.179 46.6969 156.734 53.5249C152.924 61.0769 144.715 67.5811 140.859 66.1021C135.872 64.1881 137.625 69.8792 144.066 76.5152C148.306 80.8841 150.337 81.2685 150.337 77.7066C150.337 76.6574 151.622 74.3218 153.193 72.5161C154.823 70.6412 156.597 66.9201 157.324 63.8501C158.925 57.0892 160.788 55.2289 167.369 53.8169C177.32 51.6829 185.581 56.9263 183.752 64.2153C183.293 66.0423 183.901 67.6656 186.09 70.4585C196.859 84.1975 193.875 104.273 180.596 107.418C177.049 108.258 176.832 108.532 176.773 112.27C176.739 114.448 176.365 116.987 175.943 117.912C175.255 119.417 175.946 119.564 182.506 119.31C190.415 119.003 192.674 119.705 195.953 123.487C199.054 127.064 201.598 126.114 202.609 121.002C203.503 116.483 209.096 110.731 212.596 110.731C214.841 110.731 215.934 108.156 214.449 106.367C206.1 96.3056 222.234 73.6632 235.605 76.6792C241.572 78.0252 246.302 83.6302 246.367 89.4312C246.384 90.9712 247.505 94.4811 248.858 97.231C255.362 110.453 243.304 126.225 232.777 118.263C229.924 116.105 229.837 116.226 229.837 122.341C229.837 128.93 225.932 133.292 219.049 134.393C216.068 134.87 214.933 135.67 213.775 138.116C212.964 139.829 211.55 142.415 210.63 143.863C208.984 146.456 209.02 146.565 213.147 151.254C215.451 153.871 217.337 156.555 217.337 157.218C217.337 157.882 218.074 159.901 218.974 161.706C222.148 168.067 221.073 181.731 217.4 181.731C217.052 181.731 215.97 183.081 214.995 184.731C214.02 186.381 212.573 187.731 211.779 187.731C209.595 187.731 210.044 189.817 212.863 192.76C216.384 196.435 217.425 204.867 214.728 207.858C209.503 213.649 203.05 218.01 198.064 219.122C193.944 220.041 192.83 220.705 192.804 222.259C192.669 230.389 188.242 235.387 179.682 237.077C172.845 238.427 172.072 240.31 177.577 242.203C190.358 246.597 192.892 257.693 182.442 263.506C176.521 266.799 172.426 266.758 167.515 263.354C163.894 260.845 163.161 260.686 159.679 261.653C153.737 263.303 147.363 262.934 141.337 260.593C135.874 258.47 130.724 257.068 124.689 256.061C118.715 255.064 115.151 249.943 114.592 241.551C114.184 235.417 113.671 233.745 111.425 231.231C109.951 229.581 107.986 226.544 107.058 224.481C105.42 220.844 105.211 220.731 100.164 220.731C93.7935 220.731 89.0798 217.922 86.2168 212.42C83.0468 206.327 78.9427 207.336 78.8477 214.231C78.8097 216.981 78.4233 220.817 77.9883 222.755C77.2354 226.113 77.3507 226.324 80.4366 227.255C90.5004 230.29 90.3981 247.946 80.2881 252.934C55.9904 264.92 26.2411 240.473 47.875 226.298C49.556 225.196 50.1805 223.494 50.6895 218.626C51.0495 215.185 52.1298 211.262 53.0908 209.91C54.0507 208.557 55.2736 206.856 55.8086 206.127C56.5016 205.184 56.0161 204.003 54.1221 202.017C50.6273 198.355 49.3112 194.657 49.9981 190.428C50.3281 188.392 50.1033 186.705 49.4463 186.299C48.8364 185.922 48.337 184.345 48.3369 182.794C48.3369 181.244 47.6012 179.366 46.7032 178.621C43.9996 176.376 34.3369 162.856 34.3369 161.317C34.3368 160.529 32.7627 157.822 30.8389 155.302C28.915 152.781 27.3998 150.384 27.4727 149.975C28.4457 144.478 24.6467 141.425 20.4727 144.348C18.2547 145.902 11.2222 145.776 6.86624 144.104C-3.23648 140.227 -1.78745 115.126 8.56839 114.62C14.8594 114.313 23.3369 117.551 23.3369 120.261C23.3372 122.018 26.1103 124.731 27.9073 124.731C28.6933 124.731 29.3369 124.041 29.3369 123.198C29.3372 109.814 50.1851 94.3087 69.8369 93.0767C82.9305 92.2547 88.2617 93.4969 97.1895 99.4468C101.45 102.287 108.337 96.8837 108.337 90.7007C108.337 88.6598 109.172 86.4706 110.483 85.0747C112.734 82.6789 111.804 79.7313 108.796 79.731C106.403 79.731 103.556 73.5422 104.077 69.4702C105.046 61.8843 117.633 57.7673 123.289 63.1861C125.639 65.4379 126.708 65.8083 129.245 65.2515C133.054 64.4145 133.128 63.4739 129.587 60.895C121.36 54.902 128.195 37.9086 139.837 35.4146ZM227.337 203.429C239.094 199.654 252.722 207.291 252.722 217.653C252.722 228.495 231.921 239.44 223.927 232.806C221.665 230.929 220.403 232.363 221.012 236.118C222.097 242.802 213.511 254.731 207.616 254.731C194.246 254.731 188.8 246.232 194.457 234.198C198.202 226.231 204.453 223.784 213.238 226.847C217.536 228.345 217.88 227.687 215.921 221.697C213.052 212.925 216.89 206.783 227.337 203.429ZM179.7 192.695C179.049 192.044 178.051 192.413 176.774 193.779C168.37 202.768 165.063 203.713 156.506 199.571C149.746 196.298 146.45 201.459 151.961 206.689C154.209 208.822 154.482 209.744 154.038 213.682C153.54 218.098 153.664 218.344 158.682 222.967C163.836 227.716 163.837 227.716 164.351 222.867C164.987 216.872 169.522 209.969 174.077 208.066C177.094 206.805 177.337 206.359 177.337 202.046C177.337 199.092 177.95 196.711 179.013 195.536C180.117 194.315 180.352 193.347 179.7 192.695ZM13.7354 183.697C21.2304 180.362 25.9355 181.225 32.1055 187.066C40.5644 195.074 37.0287 205.612 24.6309 209.343C9.40689 213.925 -0.704596 190.124 13.7354 183.697ZM252.956 148.251C262.129 145.732 267.81 147.203 270.983 152.921C277.397 164.478 257.352 180.919 247.179 172.445C237.093 164.044 240.016 151.805 252.956 148.251ZM175.822 162.709C174.842 161.123 172.482 161.589 171.417 163.579C170.283 165.699 171.384 170.913 173.086 171.481C174.366 171.905 176.761 164.229 175.822 162.709ZM150.152 111.481C150.492 108.526 149.534 108.177 145.513 109.79C142.108 111.155 143.035 114.231 146.851 114.231C149.365 114.231 149.886 113.796 150.152 111.481ZM156.837 98.731C156.012 98.731 155.337 99.406 155.337 100.231C155.337 101.056 156.012 101.731 156.837 101.731C157.662 101.731 158.337 101.056 158.337 100.231C158.337 99.4061 157.662 98.7312 156.837 98.731ZM131.337 85.6382C131.337 82.8002 129.491 81.4004 127.429 82.6743C126.501 83.2473 126.685 84.2905 128.185 86.9605C129.273 88.9003 130.316 91.46 130.5 92.6489C130.685 93.8379 131.287 94.905 131.837 95.021C133.25 95.317 133.729 90.7224 132.422 89.4155C131.825 88.8185 131.337 87.1191 131.337 85.6382ZM79.8369 36.9214C89.8819 31.2487 102.893 46.8492 95.6582 55.8921C92.2024 60.211 91.2042 63.981 91.8701 70.1997C92.5322 76.3837 92.4821 76.5638 89.0371 80.3628C76.0391 94.6997 55.1533 78.5005 64.8242 61.5825C66.3391 58.9327 67.3172 55.6452 67.3242 53.1753C67.3402 47.7053 72.4159 41.1124 79.8369 36.9214ZM120.896 78.731C120.653 78.731 120.177 79.1811 119.837 79.731C119.497 80.2809 119.695 80.7309 120.277 80.731C120.859 80.731 121.337 80.281 121.337 79.731C121.337 79.181 121.139 78.731 120.896 78.731ZM205.485 39.4898C219.631 37.0418 227.598 50.9151 220.597 65.8081C213.393 81.13 190.339 77.7861 190.091 61.3823C189.98 54.0764 199.509 40.5238 205.485 39.4898ZM51.8369 14.5542C64.4449 5.86451 75.68 19.3671 68.6241 34.731C62.385 48.3167 41.3372 43.775 41.3369 28.8423C41.3369 26.0333 47.6529 17.4382 51.8369 14.5542ZM108.212 2.17043C121.43 -6.81137 141.546 14.0924 133.237 28.1743C132.084 30.1297 130.819 31.7302 130.427 31.731C130.035 31.731 128.813 32.5703 127.713 33.5962C119.456 41.2872 107.786 35.7761 103.367 22.0991C100.152 12.1461 101.463 6.75643 108.212 2.17043Z" fill="#7C8BBF"/>
</g>
<path id="stroke0_24_298_ref" d="M40 73.3334C58.41 73.3334 73.3333 58.41 73.3333 40C73.3333 21.59 58.41 6.66669 40 6.66669C21.59 6.66669 6.66663 21.59 6.66663 40C6.66663 58.41 21.59 73.3334 40 73.3334ZM42.5 30C42.5 29.337 42.2366 28.7011 41.7677 28.2323C41.2989 27.7634 40.663 27.5 40 27.5C39.3369 27.5 38.701 27.7634 38.2322 28.2323C37.7634 28.7011 37.5 29.337 37.5 30V37.5H30C29.3369 37.5 28.701 37.7634 28.2322 38.2323C27.7634 38.7011 27.5 39.337 27.5 40C27.5 40.6631 27.7634 41.2989 28.2322 41.7678C28.701 42.2366 29.3369 42.5 30 42.5H37.5V50C37.5 50.6631 37.7634 51.2989 38.2322 51.7678C38.701 52.2366 39.3369 52.5 40 52.5C40.663 52.5 41.2989 52.2366 41.7677 51.7678C42.2366 51.2989 42.5 50.6631 42.5 50V42.5H50C50.663 42.5 51.2989 42.2366 51.7677 41.7678C52.2366 41.2989 52.5 40.6631 52.5 40C52.5 39.337 52.2366 38.7011 51.7677 38.2323C51.2989 37.7634 50.663 37.5 50 37.5H42.5V30Z"/>
</defs>
</svg>
