<svg width="40" height="40" viewBox="0 0 40 40" fill="none" xmlns="http://www.w3.org/2000/svg" xmlns:xlink="http://www.w3.org/1999/xlink">
<path d="M20 16.6667C23.6819 16.6667 26.6667 13.6819 26.6667 10C26.6667 6.31811 23.6819 3.33334 20 3.33334C16.3181 3.33334 13.3334 6.31811 13.3334 10C13.3334 13.6819 16.3181 16.6667 20 16.6667Z" fill="#5A6CAA"/>
<use xlink:href="#stroke0_36_1018" transform="translate(25.5303 11.2032) scale(0.0080419) rotate(-95.2316)"/>
<use xlink:href="#stroke0_36_1018" transform="translate(26.4716 11.8193) scale(0.00625053) rotate(-130.859)"/>
<use xlink:href="#stroke0_36_1018" transform="translate(27.2763 11.8779) scale(0.00545092) rotate(-176.05)"/>
<use xlink:href="#stroke0_36_1018" transform="translate(27.5238 12.0409) scale(0.00577496) rotate(163.564)"/>
<use xlink:href="#stroke0_36_1018" transform="translate(26.7787 10.4788) scale(0.00706919) rotate(56.6105)"/>
<use xlink:href="#stroke0_36_1018" transform="translate(25.7846 13.3566) scale(0.00544692) rotate(-114.273)"/>
<use xlink:href="#stroke0_36_1018" transform="translate(26.2187 14.0018) scale(0.00615124) rotate(-144.989)"/>
<use xlink:href="#stroke0_36_1018" transform="translate(25.7799 14.3063) scale(0.00565344) rotate(-133.727)"/>
<use xlink:href="#stroke0_36_1018" transform="translate(24.9571 15.09) scale(0.00794439) rotate(-114.823)"/>
<use xlink:href="#stroke0_36_1018" transform="translate(26.6104 14.6646) scale(0.00706644) rotate(155.905)"/>
<use xlink:href="#stroke0_36_1018" transform="translate(24.8366 15.6033) scale(0.00571078) rotate(-131.767)"/>
<use xlink:href="#stroke0_36_1018" transform="translate(24.6193 16.0028) scale(0.00604139) rotate(-136.383)"/>
<use xlink:href="#stroke0_36_1018" transform="translate(24.8205 14.0262) scale(0.00552757) rotate(66.2481)"/>
<use xlink:href="#stroke0_36_1018" transform="translate(23.1228 15.975) scale(0.00539255) rotate(-84.7759)"/>
<use xlink:href="#stroke0_36_1018" transform="translate(24.8026 16.4012) scale(0.00690946) rotate(166.217)"/>
<use xlink:href="#stroke0_36_1018" transform="translate(22.877 17.0727) scale(0.00617403) rotate(-123.519)"/>
<use xlink:href="#stroke0_36_1018" transform="translate(22.6017 17.5911) scale(0.00739026) rotate(-133.175)"/>
<use xlink:href="#stroke0_36_1018" transform="translate(23.2989 16.9875) scale(0.00609671) rotate(166.254)"/>
<use xlink:href="#stroke0_36_1018" transform="translate(20.9349 15.5662) scale(0.00598786) rotate(-5.25183)"/>
<use xlink:href="#stroke0_36_1018" transform="translate(22.453 16.9101) scale(0.00541788) rotate(152.024)"/>
<use xlink:href="#stroke0_36_1018" transform="translate(19.6866 16.0758) scale(0.00667068) rotate(-26.2082)"/>
<use xlink:href="#stroke0_36_1018" transform="translate(20.5096 17.9162) scale(0.00615374) rotate(-140.377)"/>
<use xlink:href="#stroke0_36_1018" transform="translate(19.2626 18.0811) scale(0.00763061) rotate(-112.861)"/>
<use xlink:href="#stroke0_36_1018" transform="translate(19.223 15.5814) scale(0.00528482) rotate(29.2109)"/>
<use xlink:href="#stroke0_36_1018" transform="translate(17.9782 15.338) scale(0.00771902) rotate(3.18893)"/>
<use xlink:href="#stroke0_36_1018" transform="translate(19.6042 16.0069) scale(0.00609431) rotate(109.038)"/>
<use xlink:href="#stroke0_36_1018" transform="translate(18.2852 17.5826) scale(0.00610198) rotate(-151.884)"/>
<use xlink:href="#stroke0_36_1018" transform="translate(18.5509 17.3802) scale(0.00774415) rotate(-179.852)"/>
<use xlink:href="#stroke0_36_1018" transform="translate(16.1712 17.216) scale(0.00731907) rotate(-106.219)"/>
<use xlink:href="#stroke0_36_1018" transform="translate(15.686 16.6504) scale(0.00619813) rotate(-97.2712)"/>
<use xlink:href="#stroke0_36_1018" transform="translate(14.8437 14.6892) scale(0.00707385) rotate(-18.7995)"/>
<use xlink:href="#stroke0_36_1018" transform="translate(16.0179 13.507) scale(0.00775585) rotate(54.2522)"/>
<use xlink:href="#stroke0_36_1018" transform="translate(14.5397 15.922) scale(0.00695574) rotate(-108.707)"/>
<use xlink:href="#stroke0_36_1018" transform="translate(14.4701 13.3002) scale(0.00549155) rotate(17.2701)"/>
<use xlink:href="#stroke0_36_1018" transform="translate(13.5385 13.038) scale(0.00696692) rotate(-8.5709)"/>
<use xlink:href="#stroke0_36_1018" transform="translate(12.9929 13.1237) scale(0.00683354) rotate(-31.9982)"/>
<use xlink:href="#stroke0_36_1018" transform="translate(14.0187 11.9815) scale(0.00553386) rotate(37.0343)"/>
<use xlink:href="#stroke0_36_1018" transform="translate(13.0058 11.7331) scale(0.00644235) rotate(-1.3453)"/>
<use xlink:href="#stroke0_36_1018" transform="translate(14.7505 12.699) scale(0.00530445) rotate(153.312)"/>
<use xlink:href="#stroke0_36_1018" transform="translate(14.8329 11.4888) scale(0.00627437) rotate(114.108)"/>
<use xlink:href="#stroke0_36_1018" transform="translate(12.5785 10.1314) scale(0.00741194) rotate(5.4758)"/>
<use xlink:href="#stroke0_36_1018" transform="translate(13.902 9.45736) scale(0.00709173) rotate(62.216)"/>
<use xlink:href="#stroke0_36_1018" transform="translate(14.7399 9.93147) scale(0.00701917) rotate(117.212)"/>
<use xlink:href="#stroke0_36_1018" transform="translate(14.0998 8.78686) scale(0.00610428) rotate(78.8062)"/>
<use xlink:href="#stroke0_36_1018" transform="translate(12.9738 10.386) scale(0.00538928) rotate(-117.952)"/>
<use xlink:href="#stroke0_36_1018" transform="translate(12.5508 7.60764) scale(0.00744702) rotate(6.40359)"/>
<use xlink:href="#stroke0_36_1018" transform="translate(13.3076 9.90539) scale(0.00793833) rotate(-129.898)"/>
<use xlink:href="#stroke0_36_1018" transform="translate(14.0939 6.51987) scale(0.00634836) rotate(58.2486)"/>
<use xlink:href="#stroke0_36_1018" transform="translate(15.0714 6.46301) scale(0.00697799) rotate(95.8239)"/>
<use xlink:href="#stroke0_36_1018" transform="translate(14.9696 5.67231) scale(0.00690572) rotate(77.2672)"/>
<use xlink:href="#stroke0_36_1018" transform="translate(15.0208 5.35132) scale(0.00596277) rotate(72.5157)"/>
<use xlink:href="#stroke0_36_1018" transform="translate(15 4.89076) scale(0.00581543) rotate(58.8188)"/>
<use xlink:href="#stroke0_36_1018" transform="translate(14.584 4.00842) scale(0.00805975) rotate(27.8333)"/>
<use xlink:href="#stroke0_36_1018" transform="translate(15.0515 6.77933) scale(0.00794898) rotate(-126.489)"/>
<use xlink:href="#stroke0_36_1018" transform="translate(17.2384 3.86264) scale(0.0080648) rotate(97.9034)"/>
<use xlink:href="#stroke0_36_1018" transform="translate(15.6956 3.43558) scale(0.00576038) rotate(11.9029)"/>
<use xlink:href="#stroke0_36_1018" transform="translate(17.1165 5.69174) scale(0.00750948) rotate(-153.881)"/>
<use xlink:href="#stroke0_36_1018" transform="translate(15.7948 4.50412) scale(0.00742431) rotate(-70.2186)"/>
<use xlink:href="#stroke0_36_1018" transform="translate(18.0247 4.80543) scale(0.00540111) rotate(-157.397)"/>
<use xlink:href="#stroke0_36_1018" transform="translate(19.4402 4.47408) scale(0.00763026) rotate(165.361)"/>
<use xlink:href="#stroke0_36_1018" transform="translate(18.8178 2.06472) scale(0.00684184) rotate(47.292)"/>
<use xlink:href="#stroke0_36_1018" transform="translate(18.1455 3.93126) scale(0.00549047) rotate(-77.2895)"/>
<use xlink:href="#stroke0_36_1018" transform="translate(19.9091 4.50053) scale(0.00584574) rotate(-155.129)"/>
<use xlink:href="#stroke0_36_1018" transform="translate(19.124 4.55361) scale(0.00752035) rotate(-100.609)"/>
<use xlink:href="#stroke0_36_1018" transform="translate(21.5493 2.25405) scale(0.00700084) rotate(81.1026)"/>
<use xlink:href="#stroke0_36_1018" transform="translate(22.129 4.18279) scale(0.00610657) rotate(168.331)"/>
<use xlink:href="#stroke0_36_1018" transform="translate(22.8055 3.61313) scale(0.00599193) rotate(135.705)"/>
<use xlink:href="#stroke0_36_1018" transform="translate(22.132 2.2076) scale(0.00704665) rotate(44.4904)"/>
<use xlink:href="#stroke0_36_1018" transform="translate(22.2793 5.28918) scale(0.00715865) rotate(-127.548)"/>
<use xlink:href="#stroke0_36_1018" transform="translate(24.5073 3.61371) scale(0.00736907) rotate(113.608)"/>
<use xlink:href="#stroke0_36_1018" transform="translate(24.5654 3.59002) scale(0.00625597) rotate(96.1107)"/>
<use xlink:href="#stroke0_36_1018" transform="translate(25.3452 4.85502) scale(0.00696443) rotate(141.013)"/>
<use xlink:href="#stroke0_36_1018" transform="translate(23.5743 3.65445) scale(0.00738896) rotate(10.2978)"/>
<use xlink:href="#stroke0_36_1018" transform="translate(25.9634 4.90925) scale(0.00625928) rotate(113.199)"/>
<use xlink:href="#stroke0_36_1018" transform="translate(23.5351 5.23052) scale(0.0079813) rotate(-31.5289)"/>
<use xlink:href="#stroke0_36_1018" transform="translate(26.5984 5.75129) scale(0.0059676) rotate(113.314)"/>
<use xlink:href="#stroke0_36_1018" transform="translate(26.5046 7.19813) scale(0.00531865) rotate(171.67)"/>
<use xlink:href="#stroke0_36_1018" transform="translate(24.7301 6.03987) scale(0.00707209) rotate(-12.3485)"/>
<use xlink:href="#stroke0_36_1018" transform="translate(26.3738 6.26645) scale(0.00530421) rotate(55.4727)"/>
<use xlink:href="#stroke0_36_1018" transform="translate(27.4856 6.8943) scale(0.00722075) rotate(95.3438)"/>
<use xlink:href="#stroke0_36_1018" transform="translate(27.3967 9.31685) scale(0.00684227) rotate(178.77)"/>
<use xlink:href="#stroke0_36_1018" transform="translate(25.0355 9.31525) scale(0.00779701) rotate(-66.3731)"/>
<use xlink:href="#stroke0_36_1018" transform="translate(26.1678 8.33662) scale(0.00528115) rotate(16.102)"/>
<use xlink:href="#stroke0_36_1018" transform="translate(27.7312 9.54061) scale(0.00527288) rotate(121.882)"/>
<use xlink:href="#stroke0_36_1018" transform="translate(26.9681 8.88837) scale(0.00559647) rotate(56.5738)"/>
<path d="M20 35C26.4434 35 31.6667 32.0152 31.6667 28.3333C31.6667 24.6514 26.4434 21.6667 20 21.6667C13.5567 21.6667 8.33337 24.6514 8.33337 28.3333C8.33337 32.0152 13.5567 35 20 35Z" fill="#5A6CAA"/>
<use xlink:href="#stroke1_36_1018" transform="translate(31.1172 26.9531) scale(0.00721873) rotate(19.6952)"/>
<use xlink:href="#stroke1_36_1018" transform="translate(30.2171 28.3863) scale(0.00726688) rotate(-29.1656)"/>
<use xlink:href="#stroke1_36_1018" transform="translate(31.7977 30.5086) scale(0.00569929) rotate(-151.928)"/>
<use xlink:href="#stroke1_36_1018" transform="translate(32.4408 29.0825) scale(0.00619611) rotate(97.324)"/>
<use xlink:href="#stroke1_36_1018" transform="translate(30.8827 29.089) scale(0.00565203) rotate(25.6309)"/>
<use xlink:href="#stroke1_36_1018" transform="translate(30.7446 29.3593) scale(0.00612485) rotate(30.8248)"/>
<use xlink:href="#stroke1_36_1018" transform="translate(29.2734 31.3475) scale(0.0070683) rotate(-62.0134)"/>
<use xlink:href="#stroke1_36_1018" transform="translate(31.2198 30.1227) scale(0.00774515) rotate(75.5955)"/>
<use xlink:href="#stroke1_36_1018" transform="translate(31.4906 31.6462) scale(0.00777447) rotate(123.8)"/>
<use xlink:href="#stroke1_36_1018" transform="translate(29.5235 30.605) scale(0.00798349) rotate(44.0814)"/>
<use xlink:href="#stroke1_36_1018" transform="translate(28.3728 31.3917) scale(0.00650968) rotate(13.4176)"/>
<use xlink:href="#stroke1_36_1018" transform="translate(29.9658 32.6262) scale(0.00684093) rotate(122.132)"/>
<use xlink:href="#stroke1_36_1018" transform="translate(28.6198 32.0583) scale(0.00546992) rotate(64.8323)"/>
<use xlink:href="#stroke1_36_1018" transform="translate(28.5288 32.0795) scale(0.00710516) rotate(73.6043)"/>
<use xlink:href="#stroke1_36_1018" transform="translate(26.444 34.8767) scale(0.00750543) rotate(-107.233)"/>
<use xlink:href="#stroke1_36_1018" transform="translate(25.6379 34.0325) scale(0.00573044) rotate(-62.0867)"/>
<use xlink:href="#stroke1_36_1018" transform="translate(25.6639 35.4594) scale(0.00797189) rotate(-115.866)"/>
<use xlink:href="#stroke1_36_1018" transform="translate(24.7913 32.7661) scale(0.00807746) rotate(7.47014)"/>
<use xlink:href="#stroke1_36_1018" transform="translate(26.6528 34.6747) scale(0.00750465) rotate(144.8)"/>
<use xlink:href="#stroke1_36_1018" transform="translate(25.7425 33.7941) scale(0.00621472) rotate(100.515)"/>
<use xlink:href="#stroke1_36_1018" transform="translate(22.8637 35.0427) scale(0.00673681) rotate(-68.8484)"/>
<use xlink:href="#stroke1_36_1018" transform="translate(24.8054 33.7748) scale(0.00710503) rotate(93.7669)"/>
<use xlink:href="#stroke1_36_1018" transform="translate(22.0945 34.3191) scale(0.00562896) rotate(-26.7046)"/>
<use xlink:href="#stroke1_36_1018" transform="translate(22.3356 33.5382) scale(0.00648689) rotate(25.0032)"/>
<use xlink:href="#stroke1_36_1018" transform="translate(21.1135 33.8039) scale(0.00739707) rotate(-3.45054)"/>
<use xlink:href="#stroke1_36_1018" transform="translate(22.9471 35.0378) scale(0.00622634) rotate(136.134)"/>
<use xlink:href="#stroke1_36_1018" transform="translate(20.1889 34.5674) scale(0.00540171) rotate(-27.7225)"/>
<use xlink:href="#stroke1_36_1018" transform="translate(22.0232 35.3598) scale(0.00629532) rotate(148.211)"/>
<use xlink:href="#stroke1_36_1018" transform="translate(18.9262 34.3275) scale(0.00727995) rotate(-21.9992)"/>
<use xlink:href="#stroke1_36_1018" transform="translate(18.9497 36.0408) scale(0.0063677) rotate(-101.287)"/>
<use xlink:href="#stroke1_36_1018" transform="translate(19.8392 36.1772) scale(0.00644156) rotate(-164.689)"/>
<use xlink:href="#stroke1_36_1018" transform="translate(17.7485 35.5992) scale(0.00591161) rotate(-80.049)"/>
<use xlink:href="#stroke1_36_1018" transform="translate(17.3413 34.257) scale(0.00585392) rotate(-14.4686)"/>
<use xlink:href="#stroke1_36_1018" transform="translate(16.8983 33.673) scale(0.00744094) rotate(3.74665)"/>
<use xlink:href="#stroke1_36_1018" transform="translate(18.4751 34.4363) scale(0.00587576) rotate(112.677)"/>
<use xlink:href="#stroke1_36_1018" transform="translate(16.3198 36.1211) scale(0.00711421) rotate(-117.781)"/>
<use xlink:href="#stroke1_36_1018" transform="translate(15.6634 33.6258) scale(0.0060469) rotate(8.14435)"/>
<use xlink:href="#stroke1_36_1018" transform="translate(17.4386 34.7202) scale(0.00787362) rotate(137.056)"/>
<use xlink:href="#stroke1_36_1018" transform="translate(13.8082 35.1937) scale(0.00790688) rotate(-76.9114)"/>
<use xlink:href="#stroke1_36_1018" transform="translate(14.9594 32.903) scale(0.00678014) rotate(52.0847)"/>
<use xlink:href="#stroke1_36_1018" transform="translate(14.8369 33.1192) scale(0.00570644) rotate(71.6144)"/>
<use xlink:href="#stroke1_36_1018" transform="translate(12.7811 33.4708) scale(0.0057137) rotate(-22.1794)"/>
<use xlink:href="#stroke1_36_1018" transform="translate(13.5365 35.0095) scale(0.00569743) rotate(-143.945)"/>
<use xlink:href="#stroke1_36_1018" transform="translate(13.4287 35.1926) scale(0.00787342) rotate(-155.825)"/>
<use xlink:href="#stroke1_36_1018" transform="translate(11.2762 33.4517) scale(0.00582121) rotate(-49.7506)"/>
<use xlink:href="#stroke1_36_1018" transform="translate(11.0167 33.5605) scale(0.00545362) rotate(-65.5052)"/>
<use xlink:href="#stroke1_36_1018" transform="translate(12.8132 32.9534) scale(0.00526416) rotate(126.955)"/>
<use xlink:href="#stroke1_36_1018" transform="translate(12.8076 32.9328) scale(0.00723721) rotate(136.866)"/>
<use xlink:href="#stroke1_36_1018" transform="translate(9.47748 33.148) scale(0.00746729) rotate(-74.4881)"/>
<use xlink:href="#stroke1_36_1018" transform="translate(11.7137 32.2024) scale(0.00615517) rotate(133.247)"/>
<use xlink:href="#stroke1_36_1018" transform="translate(8.58554 31.1151) scale(0.00785937) rotate(-23.0845)"/>
<use xlink:href="#stroke1_36_1018" transform="translate(10.8832 30.8149) scale(0.00664835) rotate(105.213)"/>
<use xlink:href="#stroke1_36_1018" transform="translate(9.14794 29.3734) scale(0.0079079) rotate(36.0634)"/>
<use xlink:href="#stroke1_36_1018" transform="translate(9.82345 29.53) scale(0.00638008) rotate(80.7535)"/>
<use xlink:href="#stroke1_36_1018" transform="translate(9.29043 31.1271) scale(0.00535094) rotate(-166.562)"/>
<use xlink:href="#stroke1_36_1018" transform="translate(9.02535 30.8085) scale(0.00539103) rotate(-160.643)"/>
<use xlink:href="#stroke1_36_1018" transform="translate(9.7693 30.1179) scale(0.00747031) rotate(162.926)"/>
<use xlink:href="#stroke1_36_1018" transform="translate(8.73888 27.1147) scale(0.00807594) rotate(54.7998)"/>
<use xlink:href="#stroke1_36_1018" transform="translate(7.96634 26.6798) scale(0.00734073) rotate(27.1636)"/>
<use xlink:href="#stroke1_36_1018" transform="translate(9.46673 27.7942) scale(0.00526386) rotate(138.137)"/>
<use xlink:href="#stroke1_36_1018" transform="translate(9.83582 27.2704) scale(0.00653031) rotate(133.141)"/>
<use xlink:href="#stroke1_36_1018" transform="translate(10.1726 26.3415) scale(0.00751636) rotate(116.99)"/>
<use xlink:href="#stroke1_36_1018" transform="translate(8.75647 24.6933) scale(0.00745973) rotate(34.8141)"/>
<use xlink:href="#stroke1_36_1018" transform="translate(8.68195 27.1729) scale(0.00746996) rotate(-117.043)"/>
<use xlink:href="#stroke1_36_1018" transform="translate(10.3871 24.1382) scale(0.00691594) rotate(75.3802)"/>
<use xlink:href="#stroke1_36_1018" transform="translate(8.45873 24.5577) scale(0.00757893) rotate(-35.1325)"/>
<use xlink:href="#stroke1_36_1018" transform="translate(9.00364 24.0664) scale(0.00715491) rotate(-29.5045)"/>
<use xlink:href="#stroke1_36_1018" transform="translate(10.3172 25.2482) scale(0.00529707) rotate(-114.115)"/>
<use xlink:href="#stroke1_36_1018" transform="translate(12.1384 25.1781) scale(0.00750154) rotate(-177.51)"/>
<use xlink:href="#stroke1_36_1018" transform="translate(12.222 22.6952) scale(0.00578153) rotate(73.0459)"/>
<use xlink:href="#stroke1_36_1018" transform="translate(12.0009 22.204) scale(0.00621518) rotate(41.6343)"/>
<use xlink:href="#stroke1_36_1018" transform="translate(13.4843 23.3826) scale(0.00535151) rotate(136.685)"/>
<use xlink:href="#stroke1_36_1018" transform="translate(14.2075 22.4545) scale(0.00735872) rotate(107.194)"/>
<use xlink:href="#stroke1_36_1018" transform="translate(13.972 23.723) scale(0.00530348) rotate(-178.595)"/>
<use xlink:href="#stroke1_36_1018" transform="translate(12.5412 22.7257) scale(0.00539055) rotate(-47.8789)"/>
<use xlink:href="#stroke1_36_1018" transform="translate(14.0744 21.1039) scale(0.00717389) rotate(40.3293)"/>
<use xlink:href="#stroke1_36_1018" transform="translate(13.6636 23.0549) scale(0.00527005) rotate(-83.3901)"/>
<use xlink:href="#stroke1_36_1018" transform="translate(13.4828 22.0873) scale(0.00756448) rotate(-40.6862)"/>
<use xlink:href="#stroke1_36_1018" transform="translate(17.1406 22.4499) scale(0.00767556) rotate(141.984)"/>
<use xlink:href="#stroke1_36_1018" transform="translate(17.4957 22.2767) scale(0.00675482) rotate(141.074)"/>
<use xlink:href="#stroke1_36_1018" transform="translate(16.054 20.7881) scale(0.00627435) rotate(15.7234)"/>
<use xlink:href="#stroke1_36_1018" transform="translate(15.8423 22.2765) scale(0.00636717) rotate(-66.4063)"/>
<use xlink:href="#stroke1_36_1018" transform="translate(16.264 22.0813) scale(0.00650858) rotate(-60.2479)"/>
<use xlink:href="#stroke1_36_1018" transform="translate(16.5786 22.1691) scale(0.00773661) rotate(-63.739)"/>
<use xlink:href="#stroke1_36_1018" transform="translate(19.5624 20.5172) scale(0.00719587) rotate(77.8392)"/>
<use xlink:href="#stroke1_36_1018" transform="translate(18.0871 20.5267) scale(0.00799596) rotate(-4.11092)"/>
<use xlink:href="#stroke1_36_1018" transform="translate(20.9172 20.8997) scale(0.00652912) rotate(96.5561)"/>
<use xlink:href="#stroke1_36_1018" transform="translate(21.3202 22.1859) scale(0.00564446) rotate(157.852)"/>
<use xlink:href="#stroke1_36_1018" transform="translate(21.868 22.9319) scale(0.00798985) rotate(-179.124)"/>
<use xlink:href="#stroke1_36_1018" transform="translate(20.7553 22.8124) scale(0.00605036) rotate(-110.915)"/>
<use xlink:href="#stroke1_36_1018" transform="translate(22.962 21.8068) scale(0.00574543) rotate(134.457)"/>
<use xlink:href="#stroke1_36_1018" transform="translate(20.8787 21.8168) scale(0.00667893) rotate(-49.6784)"/>
<use xlink:href="#stroke1_36_1018" transform="translate(24.0538 21.7182) scale(0.00638188) rotate(125.533)"/>
<use xlink:href="#stroke1_36_1018" transform="translate(23.158 23.5233) scale(0.00774664) rotate(-134.219)"/>
<use xlink:href="#stroke1_36_1018" transform="translate(22.7157 22.8296) scale(0.00661172) rotate(-84.4884)"/>
<use xlink:href="#stroke1_36_1018" transform="translate(23.2587 20.9365) scale(0.00795932) rotate(-0.896114)"/>
<use xlink:href="#stroke1_36_1018" transform="translate(26.3919 21.7494) scale(0.0075533) rotate(111.03)"/>
<use xlink:href="#stroke1_36_1018" transform="translate(24.1358 22.6043) scale(0.0064236) rotate(-55.8959)"/>
<use xlink:href="#stroke1_36_1018" transform="translate(26.921 21.4686) scale(0.00724866) rotate(82.3569)"/>
<use xlink:href="#stroke1_36_1018" transform="translate(26.8098 21.4327) scale(0.00676123) rotate(56.577)"/>
<use xlink:href="#stroke1_36_1018" transform="translate(26.5894 21.7555) scale(0.00602461) rotate(26.9797)"/>
<use xlink:href="#stroke1_36_1018" transform="translate(26.8152 24.4811) scale(0.0069442) rotate(-116.604)"/>
<use xlink:href="#stroke1_36_1018" transform="translate(29.4705 23.7353) scale(0.00798463) rotate(142.934)"/>
<use xlink:href="#stroke1_36_1018" transform="translate(28.6093 24.7463) scale(0.00549858) rotate(-153.869)"/>
<use xlink:href="#stroke1_36_1018" transform="translate(30.1902 24.1962) scale(0.0072506) rotate(142.535)"/>
<use xlink:href="#stroke1_36_1018" transform="translate(29.2957 25.8202) scale(0.0077356) rotate(-142.136)"/>
<use xlink:href="#stroke1_36_1018" transform="translate(29.7265 26.01) scale(0.00698072) rotate(-142.103)"/>
<use xlink:href="#stroke1_36_1018" transform="translate(30.1557 25.9366) scale(0.005184) rotate(-147.796)"/>
<use xlink:href="#stroke1_36_1018" transform="translate(31.1331 26.6017) scale(0.00770701) rotate(-168.963)"/>
<use xlink:href="#stroke1_36_1018" transform="translate(31.6751 24.9075) scale(0.00602338) rotate(95.6135)"/>
<use xlink:href="#stroke1_36_1018" transform="translate(32.3092 26.7085) scale(0.00729521) rotate(157.589)"/>
<use xlink:href="#stroke1_36_1018" transform="translate(30.9832 27.6512) scale(0.00579744) rotate(-127.643)"/>
<use xlink:href="#stroke1_36_1018" transform="translate(30.062 27.221) scale(0.0066787) rotate(-61.4879)"/>
<use xlink:href="#stroke1_36_1018" transform="translate(30.5535 28.4082) scale(0.00688025) rotate(-93.5766)"/>
<use xlink:href="#stroke1_36_1018" transform="translate(30.56 27.7507) scale(0.00526642) rotate(-42.6833)"/>
<use xlink:href="#stroke1_36_1018" transform="translate(31.9121 27.1552) scale(0.00556617) rotate(53.7993)"/>
<defs>
<g id="stroke0_36_1018" data-figma-scatter-ref="stroke0_36_1018_ref" data-figma-scatter="f0.28_w0_aj180_sj0.25_r0_s9906584045640854380_sw2">
<path d="M103.731 283.547C110.352 281.363 112.807 281.348 116.121 283.468C130.109 292.418 124.85 308.718 107.972 308.727C90.3768 308.737 87.0606 289.046 103.731 283.547ZM139.837 35.4146C140.937 35.1787 142.512 35.114 143.337 35.271C144.162 35.4281 146.516 35.8391 148.567 36.1851C155.802 37.4051 160.179 46.6969 156.734 53.5249C152.924 61.0769 144.715 67.5811 140.859 66.1021C135.872 64.1881 137.625 69.8792 144.066 76.5152C148.306 80.8841 150.337 81.2685 150.337 77.7066C150.337 76.6574 151.622 74.3218 153.193 72.5161C154.823 70.6412 156.597 66.9201 157.324 63.8501C158.925 57.0892 160.788 55.2289 167.369 53.8169C177.32 51.6829 185.581 56.9263 183.752 64.2153C183.293 66.0423 183.901 67.6656 186.09 70.4585C196.859 84.1975 193.875 104.273 180.596 107.418C177.049 108.258 176.832 108.532 176.773 112.27C176.739 114.448 176.365 116.987 175.943 117.912C175.255 119.417 175.946 119.564 182.506 119.31C190.415 119.003 192.674 119.705 195.953 123.487C199.054 127.064 201.598 126.114 202.609 121.002C203.503 116.483 209.096 110.731 212.596 110.731C214.841 110.731 215.934 108.156 214.449 106.367C206.1 96.3056 222.234 73.6632 235.605 76.6792C241.572 78.0252 246.302 83.6302 246.367 89.4312C246.384 90.9712 247.505 94.4811 248.858 97.231C255.362 110.453 243.304 126.225 232.777 118.263C229.924 116.105 229.837 116.226 229.837 122.341C229.837 128.93 225.932 133.292 219.049 134.393C216.068 134.87 214.933 135.67 213.775 138.116C212.964 139.829 211.55 142.415 210.63 143.863C208.984 146.456 209.02 146.565 213.147 151.254C215.451 153.871 217.337 156.555 217.337 157.218C217.337 157.882 218.074 159.901 218.974 161.706C222.148 168.067 221.073 181.731 217.4 181.731C217.052 181.731 215.97 183.081 214.995 184.731C214.02 186.381 212.573 187.731 211.779 187.731C209.595 187.731 210.044 189.817 212.863 192.76C216.384 196.435 217.425 204.867 214.728 207.858C209.503 213.649 203.05 218.01 198.064 219.122C193.944 220.041 192.83 220.705 192.804 222.259C192.669 230.389 188.242 235.387 179.682 237.077C172.845 238.427 172.072 240.31 177.577 242.203C190.358 246.597 192.892 257.693 182.442 263.506C176.521 266.799 172.426 266.758 167.515 263.354C163.894 260.845 163.161 260.686 159.679 261.653C153.737 263.303 147.363 262.934 141.337 260.593C135.874 258.47 130.724 257.068 124.689 256.061C118.715 255.064 115.151 249.943 114.592 241.551C114.184 235.417 113.671 233.745 111.425 231.231C109.951 229.581 107.986 226.544 107.058 224.481C105.42 220.844 105.211 220.731 100.164 220.731C93.7935 220.731 89.0798 217.922 86.2168 212.42C83.0468 206.327 78.9427 207.336 78.8477 214.231C78.8097 216.981 78.4233 220.817 77.9883 222.755C77.2354 226.113 77.3507 226.324 80.4366 227.255C90.5004 230.29 90.3981 247.946 80.2881 252.934C55.9904 264.92 26.2411 240.473 47.875 226.298C49.556 225.196 50.1805 223.494 50.6895 218.626C51.0495 215.185 52.1298 211.262 53.0908 209.91C54.0507 208.557 55.2736 206.856 55.8086 206.127C56.5016 205.184 56.0161 204.003 54.1221 202.017C50.6273 198.355 49.3112 194.657 49.9981 190.428C50.3281 188.392 50.1033 186.705 49.4463 186.299C48.8364 185.922 48.337 184.345 48.3369 182.794C48.3369 181.244 47.6012 179.366 46.7032 178.621C43.9996 176.376 34.3369 162.856 34.3369 161.317C34.3368 160.529 32.7627 157.822 30.8389 155.302C28.915 152.781 27.3998 150.384 27.4727 149.975C28.4457 144.478 24.6467 141.425 20.4727 144.348C18.2547 145.902 11.2222 145.776 6.86624 144.104C-3.23648 140.227 -1.78745 115.126 8.56839 114.62C14.8594 114.313 23.3369 117.551 23.3369 120.261C23.3372 122.018 26.1103 124.731 27.9073 124.731C28.6933 124.731 29.3369 124.041 29.3369 123.198C29.3372 109.814 50.1851 94.3087 69.8369 93.0767C82.9305 92.2547 88.2617 93.4969 97.1895 99.4468C101.45 102.287 108.337 96.8837 108.337 90.7007C108.337 88.6598 109.172 86.4706 110.483 85.0747C112.734 82.6789 111.804 79.7313 108.796 79.731C106.403 79.731 103.556 73.5422 104.077 69.4702C105.046 61.8843 117.633 57.7673 123.289 63.1861C125.639 65.4379 126.708 65.8083 129.245 65.2515C133.054 64.4145 133.128 63.4739 129.587 60.895C121.36 54.902 128.195 37.9086 139.837 35.4146ZM227.337 203.429C239.094 199.654 252.722 207.291 252.722 217.653C252.722 228.495 231.921 239.44 223.927 232.806C221.665 230.929 220.403 232.363 221.012 236.118C222.097 242.802 213.511 254.731 207.616 254.731C194.246 254.731 188.8 246.232 194.457 234.198C198.202 226.231 204.453 223.784 213.238 226.847C217.536 228.345 217.88 227.687 215.921 221.697C213.052 212.925 216.89 206.783 227.337 203.429ZM179.7 192.695C179.049 192.044 178.051 192.413 176.774 193.779C168.37 202.768 165.063 203.713 156.506 199.571C149.746 196.298 146.45 201.459 151.961 206.689C154.209 208.822 154.482 209.744 154.038 213.682C153.54 218.098 153.664 218.344 158.682 222.967C163.836 227.716 163.837 227.716 164.351 222.867C164.987 216.872 169.522 209.969 174.077 208.066C177.094 206.805 177.337 206.359 177.337 202.046C177.337 199.092 177.95 196.711 179.013 195.536C180.117 194.315 180.352 193.347 179.7 192.695ZM13.7354 183.697C21.2304 180.362 25.9355 181.225 32.1055 187.066C40.5644 195.074 37.0287 205.612 24.6309 209.343C9.40689 213.925 -0.704596 190.124 13.7354 183.697ZM252.956 148.251C262.129 145.732 267.81 147.203 270.983 152.921C277.397 164.478 257.352 180.919 247.179 172.445C237.093 164.044 240.016 151.805 252.956 148.251ZM175.822 162.709C174.842 161.123 172.482 161.589 171.417 163.579C170.283 165.699 171.384 170.913 173.086 171.481C174.366 171.905 176.761 164.229 175.822 162.709ZM150.152 111.481C150.492 108.526 149.534 108.177 145.513 109.79C142.108 111.155 143.035 114.231 146.851 114.231C149.365 114.231 149.886 113.796 150.152 111.481ZM156.837 98.731C156.012 98.731 155.337 99.406 155.337 100.231C155.337 101.056 156.012 101.731 156.837 101.731C157.662 101.731 158.337 101.056 158.337 100.231C158.337 99.4061 157.662 98.7312 156.837 98.731ZM131.337 85.6382C131.337 82.8002 129.491 81.4004 127.429 82.6743C126.501 83.2473 126.685 84.2905 128.185 86.9605C129.273 88.9003 130.316 91.46 130.5 92.6489C130.685 93.8379 131.287 94.905 131.837 95.021C133.25 95.317 133.729 90.7224 132.422 89.4155C131.825 88.8185 131.337 87.1191 131.337 85.6382ZM79.8369 36.9214C89.8819 31.2487 102.893 46.8492 95.6582 55.8921C92.2024 60.211 91.2042 63.981 91.8701 70.1997C92.5322 76.3837 92.4821 76.5638 89.0371 80.3628C76.0391 94.6997 55.1533 78.5005 64.8242 61.5825C66.3391 58.9327 67.3172 55.6452 67.3242 53.1753C67.3402 47.7053 72.4159 41.1124 79.8369 36.9214ZM120.896 78.731C120.653 78.731 120.177 79.1811 119.837 79.731C119.497 80.2809 119.695 80.7309 120.277 80.731C120.859 80.731 121.337 80.281 121.337 79.731C121.337 79.181 121.139 78.731 120.896 78.731ZM205.485 39.4898C219.631 37.0418 227.598 50.9151 220.597 65.8081C213.393 81.13 190.339 77.7861 190.091 61.3823C189.98 54.0764 199.509 40.5238 205.485 39.4898ZM51.8369 14.5542C64.4449 5.86451 75.68 19.3671 68.6241 34.731C62.385 48.3167 41.3372 43.775 41.3369 28.8423C41.3369 26.0333 47.6529 17.4382 51.8369 14.5542ZM108.212 2.17043C121.43 -6.81137 141.546 14.0924 133.237 28.1743C132.084 30.1297 130.819 31.7302 130.427 31.731C130.035 31.731 128.813 32.5703 127.713 33.5962C119.456 41.2872 107.786 35.7761 103.367 22.0991C100.152 12.1461 101.463 6.75643 108.212 2.17043Z" fill="#5A6CAA"/>
</g>
<path id="stroke0_36_1018_ref" d="M26.6667 10C26.6667 13.6819 23.6819 16.6667 20 16.6667C16.3181 16.6667 13.3334 13.6819 13.3334 10C13.3334 6.31811 16.3181 3.33334 20 3.33334C23.6819 3.33334 26.6667 6.31811 26.6667 10Z"/>
<g id="stroke1_36_1018" data-figma-scatter-ref="stroke1_36_1018_ref" data-figma-scatter="f0.28_w0_aj180_sj0.25_r0_s12208095598393506609_sw2">
<path d="M103.731 283.547C110.352 281.363 112.807 281.348 116.121 283.468C130.109 292.418 124.85 308.718 107.972 308.727C90.3768 308.737 87.0606 289.046 103.731 283.547ZM139.837 35.4146C140.937 35.1787 142.512 35.114 143.337 35.271C144.162 35.4281 146.516 35.8391 148.567 36.1851C155.802 37.4051 160.179 46.6969 156.734 53.5249C152.924 61.0769 144.715 67.5811 140.859 66.1021C135.872 64.1881 137.625 69.8792 144.066 76.5152C148.306 80.8841 150.337 81.2685 150.337 77.7066C150.337 76.6574 151.622 74.3218 153.193 72.5161C154.823 70.6412 156.597 66.9201 157.324 63.8501C158.925 57.0892 160.788 55.2289 167.369 53.8169C177.32 51.6829 185.581 56.9263 183.752 64.2153C183.293 66.0423 183.901 67.6656 186.09 70.4585C196.859 84.1975 193.875 104.273 180.596 107.418C177.049 108.258 176.832 108.532 176.773 112.27C176.739 114.448 176.365 116.987 175.943 117.912C175.255 119.417 175.946 119.564 182.506 119.31C190.415 119.003 192.674 119.705 195.953 123.487C199.054 127.064 201.598 126.114 202.609 121.002C203.503 116.483 209.096 110.731 212.596 110.731C214.841 110.731 215.934 108.156 214.449 106.367C206.1 96.3056 222.234 73.6632 235.605 76.6792C241.572 78.0252 246.302 83.6302 246.367 89.4312C246.384 90.9712 247.505 94.4811 248.858 97.231C255.362 110.453 243.304 126.225 232.777 118.263C229.924 116.105 229.837 116.226 229.837 122.341C229.837 128.93 225.932 133.292 219.049 134.393C216.068 134.87 214.933 135.67 213.775 138.116C212.964 139.829 211.55 142.415 210.63 143.863C208.984 146.456 209.02 146.565 213.147 151.254C215.451 153.871 217.337 156.555 217.337 157.218C217.337 157.882 218.074 159.901 218.974 161.706C222.148 168.067 221.073 181.731 217.4 181.731C217.052 181.731 215.97 183.081 214.995 184.731C214.02 186.381 212.573 187.731 211.779 187.731C209.595 187.731 210.044 189.817 212.863 192.76C216.384 196.435 217.425 204.867 214.728 207.858C209.503 213.649 203.05 218.01 198.064 219.122C193.944 220.041 192.83 220.705 192.804 222.259C192.669 230.389 188.242 235.387 179.682 237.077C172.845 238.427 172.072 240.31 177.577 242.203C190.358 246.597 192.892 257.693 182.442 263.506C176.521 266.799 172.426 266.758 167.515 263.354C163.894 260.845 163.161 260.686 159.679 261.653C153.737 263.303 147.363 262.934 141.337 260.593C135.874 258.47 130.724 257.068 124.689 256.061C118.715 255.064 115.151 249.943 114.592 241.551C114.184 235.417 113.671 233.745 111.425 231.231C109.951 229.581 107.986 226.544 107.058 224.481C105.42 220.844 105.211 220.731 100.164 220.731C93.7935 220.731 89.0798 217.922 86.2168 212.42C83.0468 206.327 78.9427 207.336 78.8477 214.231C78.8097 216.981 78.4233 220.817 77.9883 222.755C77.2354 226.113 77.3507 226.324 80.4366 227.255C90.5004 230.29 90.3981 247.946 80.2881 252.934C55.9904 264.92 26.2411 240.473 47.875 226.298C49.556 225.196 50.1805 223.494 50.6895 218.626C51.0495 215.185 52.1298 211.262 53.0908 209.91C54.0507 208.557 55.2736 206.856 55.8086 206.127C56.5016 205.184 56.0161 204.003 54.1221 202.017C50.6273 198.355 49.3112 194.657 49.9981 190.428C50.3281 188.392 50.1033 186.705 49.4463 186.299C48.8364 185.922 48.337 184.345 48.3369 182.794C48.3369 181.244 47.6012 179.366 46.7032 178.621C43.9996 176.376 34.3369 162.856 34.3369 161.317C34.3368 160.529 32.7627 157.822 30.8389 155.302C28.915 152.781 27.3998 150.384 27.4727 149.975C28.4457 144.478 24.6467 141.425 20.4727 144.348C18.2547 145.902 11.2222 145.776 6.86624 144.104C-3.23648 140.227 -1.78745 115.126 8.56839 114.62C14.8594 114.313 23.3369 117.551 23.3369 120.261C23.3372 122.018 26.1103 124.731 27.9073 124.731C28.6933 124.731 29.3369 124.041 29.3369 123.198C29.3372 109.814 50.1851 94.3087 69.8369 93.0767C82.9305 92.2547 88.2617 93.4969 97.1895 99.4468C101.45 102.287 108.337 96.8837 108.337 90.7007C108.337 88.6598 109.172 86.4706 110.483 85.0747C112.734 82.6789 111.804 79.7313 108.796 79.731C106.403 79.731 103.556 73.5422 104.077 69.4702C105.046 61.8843 117.633 57.7673 123.289 63.1861C125.639 65.4379 126.708 65.8083 129.245 65.2515C133.054 64.4145 133.128 63.4739 129.587 60.895C121.36 54.902 128.195 37.9086 139.837 35.4146ZM227.337 203.429C239.094 199.654 252.722 207.291 252.722 217.653C252.722 228.495 231.921 239.44 223.927 232.806C221.665 230.929 220.403 232.363 221.012 236.118C222.097 242.802 213.511 254.731 207.616 254.731C194.246 254.731 188.8 246.232 194.457 234.198C198.202 226.231 204.453 223.784 213.238 226.847C217.536 228.345 217.88 227.687 215.921 221.697C213.052 212.925 216.89 206.783 227.337 203.429ZM179.7 192.695C179.049 192.044 178.051 192.413 176.774 193.779C168.37 202.768 165.063 203.713 156.506 199.571C149.746 196.298 146.45 201.459 151.961 206.689C154.209 208.822 154.482 209.744 154.038 213.682C153.54 218.098 153.664 218.344 158.682 222.967C163.836 227.716 163.837 227.716 164.351 222.867C164.987 216.872 169.522 209.969 174.077 208.066C177.094 206.805 177.337 206.359 177.337 202.046C177.337 199.092 177.95 196.711 179.013 195.536C180.117 194.315 180.352 193.347 179.7 192.695ZM13.7354 183.697C21.2304 180.362 25.9355 181.225 32.1055 187.066C40.5644 195.074 37.0287 205.612 24.6309 209.343C9.40689 213.925 -0.704596 190.124 13.7354 183.697ZM252.956 148.251C262.129 145.732 267.81 147.203 270.983 152.921C277.397 164.478 257.352 180.919 247.179 172.445C237.093 164.044 240.016 151.805 252.956 148.251ZM175.822 162.709C174.842 161.123 172.482 161.589 171.417 163.579C170.283 165.699 171.384 170.913 173.086 171.481C174.366 171.905 176.761 164.229 175.822 162.709ZM150.152 111.481C150.492 108.526 149.534 108.177 145.513 109.79C142.108 111.155 143.035 114.231 146.851 114.231C149.365 114.231 149.886 113.796 150.152 111.481ZM156.837 98.731C156.012 98.731 155.337 99.406 155.337 100.231C155.337 101.056 156.012 101.731 156.837 101.731C157.662 101.731 158.337 101.056 158.337 100.231C158.337 99.4061 157.662 98.7312 156.837 98.731ZM131.337 85.6382C131.337 82.8002 129.491 81.4004 127.429 82.6743C126.501 83.2473 126.685 84.2905 128.185 86.9605C129.273 88.9003 130.316 91.46 130.5 92.6489C130.685 93.8379 131.287 94.905 131.837 95.021C133.25 95.317 133.729 90.7224 132.422 89.4155C131.825 88.8185 131.337 87.1191 131.337 85.6382ZM79.8369 36.9214C89.8819 31.2487 102.893 46.8492 95.6582 55.8921C92.2024 60.211 91.2042 63.981 91.8701 70.1997C92.5322 76.3837 92.4821 76.5638 89.0371 80.3628C76.0391 94.6997 55.1533 78.5005 64.8242 61.5825C66.3391 58.9327 67.3172 55.6452 67.3242 53.1753C67.3402 47.7053 72.4159 41.1124 79.8369 36.9214ZM120.896 78.731C120.653 78.731 120.177 79.1811 119.837 79.731C119.497 80.2809 119.695 80.7309 120.277 80.731C120.859 80.731 121.337 80.281 121.337 79.731C121.337 79.181 121.139 78.731 120.896 78.731ZM205.485 39.4898C219.631 37.0418 227.598 50.9151 220.597 65.8081C213.393 81.13 190.339 77.7861 190.091 61.3823C189.98 54.0764 199.509 40.5238 205.485 39.4898ZM51.8369 14.5542C64.4449 5.86451 75.68 19.3671 68.6241 34.731C62.385 48.3167 41.3372 43.775 41.3369 28.8423C41.3369 26.0333 47.6529 17.4382 51.8369 14.5542ZM108.212 2.17043C121.43 -6.81137 141.546 14.0924 133.237 28.1743C132.084 30.1297 130.819 31.7302 130.427 31.731C130.035 31.731 128.813 32.5703 127.713 33.5962C119.456 41.2872 107.786 35.7761 103.367 22.0991C100.152 12.1461 101.463 6.75643 108.212 2.17043Z" fill="#5A6CAA"/>
</g>
<path id="stroke1_36_1018_ref" d="M31.6667 28.3333C31.6667 32.0152 26.4434 35 20 35C13.5567 35 8.33337 32.0152 8.33337 28.3333C8.33337 24.6514 13.5567 21.6667 20 21.6667C26.4434 21.6667 31.6667 24.6514 31.6667 28.3333Z"/>
</defs>
</svg>
