<svg width="18" height="18" viewBox="0 0 18 18" fill="none" xmlns="http://www.w3.org/2000/svg">
<path fill-rule="evenodd" clip-rule="evenodd" d="M3.9375 7.54125V6C3.9375 4.65734 4.47087 3.36967 5.42027 2.42027C6.36967 1.47087 7.65734 0.9375 9 0.9375C10.3427 0.9375 11.6303 1.47087 12.5797 2.42027C13.5291 3.36967 14.0625 4.65734 14.0625 6V7.54125C14.8988 7.6035 15.4425 7.761 15.8407 8.15925C16.5 8.81775 16.5 9.879 16.5 12C16.5 14.121 16.5 15.1823 15.8407 15.8407C15.1823 16.5 14.121 16.5 12 16.5H6C3.879 16.5 2.81775 16.5 2.15925 15.8407C1.5 15.1823 1.5 14.121 1.5 12C1.5 9.879 1.5 8.81775 2.15925 8.15925C2.55675 7.761 3.10125 7.6035 3.9375 7.54125ZM5.0625 6C5.0625 4.95571 5.47734 3.95419 6.21577 3.21577C6.95419 2.47734 7.95571 2.0625 9 2.0625C10.0443 2.0625 11.0458 2.47734 11.7842 3.21577C12.5227 3.95419 12.9375 4.95571 12.9375 6V7.503C12.6505 7.5005 12.338 7.4995 12 7.5H6C5.6615 7.4995 5.349 7.5005 5.0625 7.503V6Z" fill="#707070"/>
</svg>
