<svg width="12" height="12" viewBox="0 0 12 12" fill="none" xmlns="http://www.w3.org/2000/svg">
<path d="M2.38389 0.438171C2.12292 0.194992 1.77774 0.0626026 1.42109 0.0688954C1.06443 0.0751882 0.724139 0.219672 0.471906 0.471906C0.219672 0.724139 0.0751882 1.06443 0.0688954 1.42109C0.0626026 1.77774 0.194992 2.12292 0.438171 2.38389L4.05428 6L0.438171 9.61611C0.302912 9.74214 0.194424 9.89413 0.11918 10.063C0.0439357 10.2319 0.00347569 10.4142 0.000214249 10.599C-0.00304719 10.7839 0.0309568 10.9675 0.100197 11.1389C0.169437 11.3103 0.272496 11.466 0.403225 11.5968C0.533953 11.7275 0.689672 11.8306 0.861094 11.8998C1.03252 11.969 1.21613 12.003 1.40098 11.9998C1.58583 11.9965 1.76812 11.9561 1.937 11.8808C2.10587 11.8056 2.25786 11.6971 2.38389 11.5618L6 7.94572L9.61611 11.5618C9.87708 11.805 10.2223 11.9374 10.5789 11.9311C10.9356 11.9248 11.2759 11.7803 11.5281 11.5281C11.7803 11.2759 11.9248 10.9356 11.9311 10.5789C11.9374 10.2223 11.805 9.87708 11.5618 9.61611L7.94572 6L11.5618 2.38389C11.6971 2.25786 11.8056 2.10587 11.8808 1.937C11.9561 1.76812 11.9965 1.58583 11.9998 1.40098C12.003 1.21613 11.969 1.03252 11.8998 0.861094C11.8306 0.689672 11.7275 0.533953 11.5968 0.403225C11.466 0.272496 11.3103 0.169437 11.1389 0.100197C10.9675 0.0309568 10.7839 -0.00304719 10.599 0.000214249C10.4142 0.00347569 10.2319 0.0439357 10.063 0.11918C9.89413 0.194424 9.74214 0.302912 9.61611 0.438171L6 4.05428L2.38389 0.438171Z" fill="#F3F2EE"/>
</svg>
